/* XPM */
static char *_0f3fc3f07d3480ff7e26b2c011713bebyIQ5MsUtO07d2b8[] = {
/* columns rows colors chars-per-pixel */
"64 64 254 2 ",
"   c #030201",
".  c #0B0201",
"X  c #080907",
"o  c #02030C",
"O  c #140501",
"+  c #1C0100",
"@  c #12120C",
"#  c #010114",
"$  c #00011B",
"%  c #06081A",
"&  c #250201",
"*  c #360301",
"=  c #271606",
"-  c #34140C",
";  c #262112",
":  c #372A11",
">  c #000423",
",  c #00012C",
"<  c #0D172F",
"1  c #020333",
"2  c #10272E",
"3  c #2F2D2D",
"4  c #373837",
"5  c #500808",
"6  c #720F0A",
"7  c #681B19",
"8  c #771818",
"9  c #4D3316",
"0  c #732710",
"q  c #711D23",
"w  c #4F3732",
"e  c #71292A",
"r  c #2C6D1B",
"t  c #35741B",
"y  c #255D22",
"u  c #31502E",
"i  c #306B24",
"p  c #277824",
"a  c #2E772E",
"s  c #327624",
"d  c #387626",
"f  c #327A26",
"g  c #3D7A22",
"h  c #38772E",
"j  c #387A2A",
"k  c #297935",
"l  c #327C32",
"z  c #387D32",
"x  c #327E38",
"c  c #387F38",
"v  c #504F1A",
"b  c #654917",
"n  c #477B1C",
"m  c #4F4931",
"M  c #6B5836",
"N  c #437925",
"B  c #407D2A",
"V  c #4F7631",
"C  c #407E33",
"Z  c #487C33",
"A  c #497F38",
"S  c #091250",
"D  c #0E294D",
"F  c #172A54",
"G  c #0A0A68",
"H  c #151570",
"J  c #37454C",
"K  c #367E40",
"L  c #37597C",
"P  c #52564F",
"I  c #71544D",
"U  c #576F4F",
"Y  c #6B6A54",
"T  c #637A59",
"R  c #4E5A67",
"E  c #6C7069",
"W  c #911311",
"Q  c #A70B06",
"!  c #B70C05",
"~  c #A81406",
"^  c #B50811",
"/  c #B11210",
"(  c #B71617",
")  c #912516",
"_  c #891D27",
"`  c #B41A27",
"'  c #922C2F",
"]  c #AA2927",
"[  c #C90A09",
"{  c #D50A0C",
"}  c #D40914",
"|  c #CB1112",
" . c #D61A18",
".. c #865E3D",
"X. c #CB5434",
"o. c #957958",
"O. c #B16C51",
"+. c #887269",
"@. c #D3544B",
"#. c #D4714A",
"$. c #27822A",
"%. c #35842C",
"&. c #298733",
"*. c #328532",
"=. c #388332",
"-. c #378837",
";. c #388438",
":. c #388C38",
">. c #46832A",
",. c #558627",
"<. c #408332",
"1. c #498432",
"2. c #4B8A32",
"3. c #428538",
"4. c #498638",
"5. c #428B38",
"6. c #498B3B",
"7. c #598C34",
"8. c #518538",
"9. c #518C3B",
"0. c #46913C",
"q. c #599339",
"w. c #629238",
"e. c #2E8440",
"r. c #368844",
"t. c #3B8C40",
"y. c #3B9246",
"u. c #428640",
"i. c #498640",
"p. c #428C40",
"a. c #4B8D40",
"s. c #4B8148",
"d. c #418D4A",
"f. c #4B8E4A",
"g. c #538742",
"h. c #588640",
"j. c #538E40",
"k. c #5C8C44",
"l. c #538E49",
"z. c #429240",
"x. c #4B9342",
"c. c #4B9349",
"v. c #46984A",
"b. c #539342",
"n. c #5C9442",
"m. c #5A9B44",
"M. c #539549",
"N. c #5C964B",
"B. c #559A4B",
"V. c #5C9B4B",
"C. c #509354",
"Z. c #539952",
"A. c #5C9D54",
"S. c #579A59",
"D. c #679846",
"F. c #63964C",
"G. c #639C4B",
"H. c #648859",
"J. c #6F9652",
"K. c #619D54",
"L. c #679A58",
"P. c #58A24B",
"I. c #5CA255",
"U. c #59A658",
"Y. c #6BA44D",
"T. c #63A355",
"R. c #63A45C",
"E. c #6AA65C",
"W. c #69A859",
"Q. c #75AA59",
"!. c #749B64",
"~. c #70906A",
"^. c #5FAA69",
"/. c #6AAA63",
"(. c #77AB66",
"). c #6AB26E",
"_. c #78B467",
"`. c #7DBA74",
"'. c #88AC5C",
"]. c #8C8A71",
"[. c #AD986D",
"{. c #B49771",
"}. c #85A768",
"|. c #8CAF71",
" X c #D49C73",
".X c #11128E",
"XX c #0E10AD",
"oX c #1517A5",
"OX c #242AAB",
"+X c #414D90",
"@X c #5C6F9D",
"#X c #1316C7",
"$X c #0D10D1",
"%X c #0A13DA",
"&X c #2D2DC7",
"*X c #0E11E9",
"=X c #5362C3",
"-X c #F17E83",
";X c #6F8F92",
":X c #5A84AD",
">X c #6893AF",
",X c #779AAA",
"<X c #73A1AB",
"1X c #5D89C6",
"2X c #679DCC",
"3X c #6FA4D1",
"4X c #8F8E8B",
"5X c #9B9A9A",
"6X c #91B18F",
"7X c #9DA2A3",
"8X c #AEB3B5",
"9X c #C9B589",
"0X c #D3B48E",
"qX c #CABA92",
"wX c #E9AA98",
"eX c #FCACAE",
"rX c #FEB8B7",
"tX c #A2C19A",
"yX c #B3C698",
"uX c #D9C48D",
"iX c #EACA85",
"pX c #EDCC8C",
"aX c #F7CA89",
"sX c #F2CD8C",
"dX c #E8D087",
"fX c #EED18C",
"gX c #F7D38A",
"hX c #F3D28C",
"jX c #EACA94",
"kX c #F6CD95",
"lX c #EAD49A",
"zX c #F3D392",
"xX c #F9D69A",
"cX c #D6E99B",
"vX c #D2C6A8",
"bX c #FBD9A5",
"nX c #F4D0AF",
"mX c #D5F1AD",
"MX c #F7E5B4",
"NX c #94A6C8",
"BX c #B1B5FE",
"VX c #FFBAC2",
"CX c #D2D2CF",
"ZX c #FDC4C4",
"AX c #F6D7D1",
"SX c #D4F8CC",
"DX c #F5F3D2",
"FX c #C6CAFF",
"GX c #F2F3EB",
"HX c #FAF7EC",
"JX c #FFF5F3",
"KX c #FCFDF5",
"LX c #F8F6FA",
"PX c #FDFBFD",
/* pixels */
"q.Q.D.%.k.E.h C _.z A.:.l Z.z N.3.s a.E.b.z a.K.c.=.3.;.i.;.M.R.;.z z.6.b.V.j a 1.=.:.*.a A.`.5.2.W.W.N k./.c V _.A L.;.a A.C M.",
"%.2.Q.9.C F./.3.2.j E.V.Z./.a.j.2.c.5.a.h a.5.a.D.-.<.6.F.2.1.g p.a j s 6.A.x.4.W.0.0.l d._.A.z f 6.W.k.C K./.s.4.c /.M.M./.a.9.",
";.p.b.6.E.A.E.3.1.G./.6.z <.C 1.R.z r B.<.M.3.<.=.>.b.n.G.C 1.Z U.;.5.6.<.C 3.f.7.*.9.p 4.F.d 9.;.p.M.6.E.F./.<.1.D./.a.z =.d 4.",
"p.5.;.3.(.4.M.C n.Q.V.%.h <.j.F.A.s 5._.;.4.B.h j j j.x.M.z 6.N.A.;.6.T.N.f r ;.2.>.P.0.4.k.8.`.z.3.-.3._.<.l.C F.Q.n.C <.j 9.Y.",
":.p M.c.5.r E.C D.G.C <.V.l.j.k.s b.`.I.z h V.z z.*.x x d.z y.d.h i d n.V.4.;.3.T.2.5.P.g.k.R.N.;.s c.M.3.r E.z G.N.j 5.A.6.9.n.",
"a.A.W.3.u.a./.3.2.2.<.N.M.C <.n.h B.I.h A.=.3.M.t.t.d.*.f.T H.H.T ~.a.2.C <.a.M.V.f p 2.B Z N.p a.A.E.;.5.x./.A 8.1.<.B.V.f >.b.",
"D._.G.s V.W.a.a.=.j a.Z.u.C M._./.z f z._.6.3.M.j 2.K.>.H.+ & + + + ].f.g.C ;.f.z l 5.<.Z k.a.k F.(.G.s A./.f.f.1.z a.Z.p.;.M._.",
"w.V 7.=.j 5.z i.Y.z ;.t.;.3.C 5.`.f M.|.b.z C.T T H.T Y e 7 q 6 8 5 ..+.Y +.E T =.:.I.=.D./.;.r.w.V 9.C z 5.h f.T.<.3.;.;.p.<.:.",
"7.1.>.G.1.1.6.R.w.;.d.q.,./.).N 4.:.h.4.&.v.}.& + + & 5 6 ] ] ( ( ] 5 * & & & - d.!.7.g ;.d.S.q.2.<.g T.j ,.1.Q.7.;.r.w.N )./.g ",
"7.q.q.D.q.b.2.1.<.1.T.A.C j.A.s.8.6.&.U Y Y Y q 7 q 8 6 / | ! ! ( / W 8 8 7 q e I P I ~.u.K i.N 2.b.n.N.b.k.8.8.3.9.G./.-.b.A.f.",
"3.m.M.<.6.6.6.2.&.,.7.t.x n ,.r.v.!./.= & * 5 ' ' _ _ ] ) W W ) ) / ) ) _ _ _ 8 & & + w i.;.B.9.3.b.A.j b.C 8.a.k ,.,.y.k N ,.e.",
"a 3.u.f b.h 1.T.d.1.N ;.r.B 5.S.p U m e 8 8 ' VXVXVXrXeXeXeXO.0  XrXeXeXVXeXVXwXe 7 e e w 4XL.F.a 3.6.h M.d 5.A.z.<.N :.&.A 2.S.",
"x ;.5.;.R.6.2.b.q.v.0.G.n.t.d.(.J.- * e ' _ O.DXLXLXLXJXKXHX|.v vXLXJXKXJXJXJXZX' _ ' 8 * I L.c f 3.;.3.A.f.3.c.G.c.v.n.n.r.d._.",
"c.c.3.s M.V.6.d q.r.&.7.w.r.;.Y 5 q ' rXZXZXZXHXGXGXGXJXtXJ tXmXGXKXKXGXGXJXJXJXZXVXVXwX_ _ - 4XM.N.z z a.I.;.j ,.*.e.,.w.e.c 7.",
"V.n.<.j z 6.3.5.1.=.=.<.=.5.x w 5 W ' AXHXJXKXHXHXKXGXSXtXy tXKXHXGXKXLXPXLXLXJXLXHXHXeX` W 5 +.!.F.C z z a.3.3.2.;.;.h j.3.u.j ",
"2.1.2.T.<.z <.U.:.q.J.y.k U & e ] ` ] AXJXKXGXJXHXKXyXu 6XSXGXGXHXHXKXGXPXLXPXLXJXJXHXwXW ` _ q O ~.j.N.6.f <.I.*.7.Q.r.;.n F.v.",
"r.k c.j.t q.Q.7.p t.u.j N.P & q ( / ] AXJXLXLXJXKXHXtXy _.SXmXmXmXSXGXLXPXGXHXJXLXLXJXeX^ } ( 6 + 4Xv.B.t n.Q.2.a t.u.j N.n.D.g ",
"y.k u.b.C C 9.1.d.a z h 7.Y & _ ( | ` AXJXJXLXJXHXHXyXu i N n v d m CXLXJXJXHXJXLXLXJXeXQ } ( 6 + 5Xi.M.1.<.9.A d.k z h 9.9.z b.",
"k A.W.j.=.6.4.3.p 5./.2.t P & q ~ ! ` eXVXVXVXrXrXZX{.b b b b b b 9 wXVXnXVXeXnXVXVXVX-X/ [ ( 6 + 7X_.l.2.6.a.=.a 5./.1.d B.5.).",
"h E.R.=.6.A.f.;.6.n.D.<.=.Y + 7 ) Q Q W W W 8 8 6 ) 8 6 8 0 0 0 0 ) W 6 W W W 6 8 8 W W Q Q ) 7 O 5X(.=.j.K.f.;.4.M.N.<.3._.6.s.",
"5.6.d d V.N.c c M.6.s <.i.U + 5 6 W ( ! ^ ^ Q Q / Q Q ~ Q Q Q ~ Q ~ Q Q ^ ^ / Q ^ ^ ^ ^ ( W 6 * . 5XA g N.N.c x m.6.r <.j.A.x k ",
"z 6.a.2.4.6.3.:.a c.=.<.C P . & * 8 Q | } } [ [ [ [ [ [ !  .( [ [ [ | | } } [ [ } } } ^ W 6 & .   5X!.C a.5.3.;.j b.j 1.=.i.l.i.",
"z c./.T.h 4.N.3.x x.p.A !.3 . + & O.@.( | { [ [ [ { { { } { [ { { { [ [ } } } { { { | ` #.) +     Y 5X`.h 6.V.5.l x.p.s j._.R.u.",
"Z.a b./.b.6.N.;.x *./.U     X . O wXxX~ ~ ! ~ ( ( ( [ ! ! [ [ ! ! ! ! ! | ( ( / ! Q ! X.AXO.  X     o 6Xb.6.M.z :.x I.<.N.F.C A ",
"|.I.p h.B f f 8.R.;.c.U   X o . O 9XaX#.@.#.#.6 q 6 '  X#.#.#.#.#.#.#.#.8 6 8 0 #.#.#. XaXO.      X X ~.d p z i.V.6.z.&.*.:.s Y.",
"2.5.*.A L.*.x.n.g.h ;.U   X     . 9XxXkXkXbX0X* - * ..xXxXkXaXaXaXgXxXkX9 - - 9 bXbXkXaXMXo.      X o ~.Z.*.c.M.b.j s 3.A.a.j 5.",
"N z.0.a./.:.5.F.<.H.T 4   o X   X qXxXaXiXbX9X= : - ..xXiXaXaXaXaXaXaXjX9 = = 9 jXjXaXiXbXo.. X X X   P E A.j.n.4.C C K.(.g.2.N.",
"A U.e.l.l.r.p k.b.T o o   X     O qXjXaXzXxX{.= = & M xXkXgXaXgXaXgXkXjX: @ @ 9 lXzXsXiXbXo.. o     o X   !.N 9.x.6.U Q.!.4.d.A.",
"A Z.p z 6.;.p 8.M.a.U P   @     O qXbXkXsXsXdX[.{.{. XlXfXzXsXkXzXfXhXzX[.[.{.{.lXkXzXpXbXo.. X X X   E ~.;.d 9.0.:.p U l.z d.*.",
"A :.k h K.x =.k.%.*.3.U X       X 9XlXsXsXgXhXxXbXnXbXpXdXzXxXsXzXfXhXhXxXxXbXbXkXzXsXpXxXo.    o   X S.K.z <.j.*.*.*.4.c z 5.*.",
"D.-.*.g.L.l :.k.5.-.T.N.C.m     O uXbXjXkXgXdXdXsXiXjXhXzXfXsXgXzXkXdXdXfXzXhXsXkXsXaXiXbX].  X . E l.u.R.c 5.9.5.=.B.B.;.h 5.V.",
"D.5.p F.g.-.=.D.Q.t V.l.g.P     X qXlXkXpXsXiXgXsXpXzXsXfXfXgXgXaXgXgXhXiXhXhXhXkXgXsXsXxX].  @ X ~.r Z.f.5.;.j.Q.B b.c.;.C 1.D.",
"k.C j.4.r j.(.d <.=.x.f 6.g.3.3   ; : 0XzXfXfXfXkXxXaXgXiXgXzXzXgXgXiXgXgXkXxXjXiXhXxX{.= =   E V.C 4.1.d b.K.z 6.f 6.p 5.x.6.x.",
"c 5.M.p.3.N.I.6.p.j.A.<.a.6.x P X X - vXuXzXpXjXkXsXkXaXiXgXuXpXfXpXfXdXiXaXlXxXsXiXlX].. ;   ~.z :.6.3.5.V.A.5.0.2.T.5.5.3.3.5.",
";.I.c.5.c.5.p l b.6.a.h M.A.a.z z.4.!.= : zXxXdXlXxXxXxXgXgXbXxXxXzXbXlXgXgXpXzXbX9X+ P L.l.N.V.-.U.V.:.0.x.;.f x.2.m.z x.B.a.;.",
"z :.=.z p.5.z x.z 3.6.s i.N.M.:.p E.(.; 9 qX9XuXqXuX9XuX0X9XuX9X9X0X9XuXuXuX9X9X0X{.O Y 4.i.N.N.=.<.<.*.<.5.5.p.<.<.:.s 6.A.F.3.",
"6.h h 4.4.l.N.A.s 9.A.z 3.c p.u.:.R.F.j AX. . .   o   . . O . O . . .   X o   X . w K.N.d 3.9.z 9.s d a.1.i.F.G.s x.V.=.3.=.M.;.",
"Q.3.g.N.6.g.N.A 2.N.F.3.M.u.x.f y.4.g.u.CX% > , < 4 3 3 @   .       3 D 3 3 1 , o 4 f.I.5.<.4.2.W.C 9.Y.g.1.9.1.=.m.V.9.x.3.a.f ",
"b.C 6.B.3.6.l.C j.b.z j N.a.c.f *.8.(.CXGX$ S G =XLXLXPX].o X   o o CXLXLXGXOXH $ 3 4.Z.V.=.9.N.j.3.6.M.i.6.6.6.0.x.:.<.M.i.M.a ",
";.;.;.3.=.=.;.;.6.k.<.d ;.p p.0.4.J.(.CX8XJ +X.X=XBXBXBX@Xo X   o # NXBXBXBX&XOXR R 6XL.B.>.b.x.f p.5.f *.;.;.=.0.b.;.f <.s a.5.",
"q.G.1.b.6.;.Y.7.:.s p.M.z d 9.6.n.4.4.. X LXFXoX%X$XXXXXG > # X . $ .XXXXX$X$X&XLXCX# J a g.4.k ,.J.&.B.9.$.'.q.a ;.d.5.3.j <.2.",
"q.2.A 3.5.6.n.q.M.;.a.A.M.4.M.S.0.4X7XY E PXFXXX*X*X*X%XG , #     , XX*X*X*X%X&XLXCXI @X~.(.;.;.w.q.:.U 3.3.7.2.c.;.5.A.p.6.m.V.",
"W.j.N.z A M.B 4.a.C z M.A.<.z x.q.@   KXKXLXFXXX%X*X*X#XH , #     , .X%X%X%X%X&XLXKXHX8X  P *./.Y.%.K.z c K.f q.B.d z K.M.=.5.5.",
"4.<./.3.3./.<.V.n.4.t C c.;.i H.].Y E AXCX4X=XXX%X*X*X#XG 1 o X o , XX%X%X%X$X&X@X4XDXuXY +.E F.q.*.}.;.;.}.$.k.N.<.d 3.x.c p ;.",
"c 3.(.4.l.`.<.6.Q.T.<.s x.p.r.;   vXMXlX9X. S XX#X%X*X#XG > # X   1 oX$X*X$X$XoX1 9 lXlXMX].  T z y.(.6.Z.}.:.4.E.(.<.s M.5.l B.",
"i.c.A.<.N./.z i V.T.a.z B.M.5.m   qXlXlXqXo G XX#X%X*X#XH > # . X , oX$X*X*X#XoX, 3 lXuXzX].O ~.z x.g.4.R.(.p.a M./.5.s I.B.a c.",
";.i.g =.L.x.p.c.c u.3.5.N.a.h 3   vXbXMXvX# G XX$X*X*X#XG $ # o   , XX%X$X$X*XoX1 w MXlXMX].. T :.j.c <.K.x.6.:.3.5.;.5.R.x.d :.",
"p.B.d q.m.r 2.).Z.p.c 5.b.6.1.!.~.M m m w $ S oXXX#X#XoXS # # .   $ .X#X#X#X#X.X, + m m m +.!.k.t.h.*.9.n.p Z ).S.x ;.M.6.<.6.q.",
"q._.Y.N 6.L.z 4._.h K.z c c.3.V.5.@ .   o # 1 F H G H H < % . o + . F H H H H S #     .   Y _.5.q.Q.Y.N q.R.z 3.(.A R.p.p Z.C N.",
"B 2.W.6.z A./.i.N.C /.M.Z.K.4.3.3.K.F.L.H.  3 8X8X8X8X8XE 3 Y ].m 9 5X8X8X8X8X7X  3 L.S.!.(.n.=.B 9.Q.0.z A./.4.8.C E.Z.M./.a.6.",
"=.u.b.6.R.A.E.4.B k.(.2.<.<.<.9.T.*.r M.:.  : mXlXcXcXmX].u ;X7XE 4 yXcXmXmXmXyX  4 5.p 3.k.t M.;.i.M.5.R.A./.C 8.F.E.i.z 4.g <.",
"p.3.z 5._.4.M.C D.Q.L.<.z z 9.D.I.j ;._.l.  ; |.|.'.|.|.}.;X;XNX,X4X|.'.'._.|./.  4 V.x.3.g.2._.p.u.;.3.(.C M.C D.Q.n.C <.C 9.G.",
"t.s c.B.u.r E.z G.Y.;.i.V.b.9.q.h l.`.A.-.X 2 <X,X<X>X>X<X<X>X<X>X,X;X<X<X>X<X;Xo 4 :.P.j.q.L.V.:.a c.M.:.r /.Z G.F.C 6.V.6.2.m.",
"p.A.Q.4.a.a.E.C B <.z V.M.6.1.G.h M.A.h I.X 2 2X2X2X3XNXL > % % % % :X3X2X2X2X:Xo 4 f 2.N 2.b.p p.N.Q.3.a.a./.<.1.2.<.B.M.d =.N.",
"n._.T.s V.E.a.u.6.=.p.I.;.C 6.(./.*.h M.`.X 2 2X2X2X2X;XR 2 2 < 2 2 @X;X2X2X2X>Xo u z.:.=.9.a.k D._.G.s N.E.a.i.z d x.Z.u.;.M._.",
"q.N 7.<.g 6.h a.A.*.p d.a p.<.9.|.s l.`.6.o D 3X2X3X+X% ~.N.D.n `.A.J $ 1X3X3X>Xo 3 U.=.M.(.*.e.q.>.7.<.C 6.h 5.R.<.;.;.;.z.5.<.",
"7.2.>.F.2.B 9.J.w.x r.7.8.^.).g i.:.8.A *.o D :X:X:XL $ ~.6.a k <.j 4 $ @X1X1X@X$ 4 2.B c f.L.,.q.B >.G.1.A 8.Q.D.f 5.k.8.U.).B ",
"9.n.V.V.b.n.4.1.5.2.T.I.<.b.W.5.9.6.&.&.G.o % S D D 1 $ E n.5.k K.M.3 o H H D D # 4 1.6.u.K 3.n 5.b.V.V.7.7.8.8.5.6.T.I.3.b.E.x.",
"1.N.V.=.6.6.4.j.k n ,.r.a N ,.r.v.}./.&.Z P J D S < F P !.d.-.S.Q.a.E J F S S D P T 2.V.f.C h.2.:.B.G.<.a.4.6.g.$.V 4.:.p Z 8.:.",
"h 3.u.j c.a 5.R.z.7.>.t.;.j 3.S.p 8.}.j.i.C.Z.% $ % U I.T.g h ).k.C Z.U.< $ > < Q.6.0.I.s.u.A.N.f 5.u.f l.z =.L.x.2.1.=.;.z 6.Z.",
"h 3.3.;.U.f.2.M.V.c.v.D.n.;.y._.J.$.:.=.j.}.C.U U U H.K =.2.B :.=.6.R.3.T T R H.w.>.t.0.C 8.b.;.h 3.6.;.R.f.3.B.G.x.x.G.F.-.p._.",
"l.M.:.d B.N.i.h ,.&.k w.w.r.K q.|.:.b.h.*.f.V p 2.V.u.p <.m.j.x 1.6.x.=.9._.l.p 7.=.t.k d k.j.;.M.M.3.f B.N.3.h 8.$.$.n.k.*.$.k.",
"K.N.z h ;.6.i.1.2.=.=.<.6.6.4.h *.=.J.}.U.*.f 9.Y.M.;.a.G.q.6.Z.D.j %.9./.R.;.l D.6.y.k 1.D.l.t.A.N.z z <.6.4.<.1.=.<.<.6.p.3.h ",
"8.<.3.R.3.z C K.t.w.D.d.k 8.k.y.9.V i v.}.i.&.x.q.j f M.D.N d Z.G.5.f x.N.N z A.7.:.r.;.D.J.N k a.C 1.T.4.z <.T.*.D.L.5.a A k.z."
};
