/* XPM */
static char *_e92fcf24f874066d4bc7ca1e75df220rMbfY2nDSLjWYQfX[] = {
/* columns rows colors chars-per-pixel */
"64 64 240 2 ",
"   c #010100",
".  c #080700",
"X  c #0C0C00",
"o  c #0E0E0E",
"O  c #100F00",
"+  c #101000",
"@  c #1B1C05",
"#  c #151515",
"$  c #1B1B1B",
"%  c #201F00",
"&  c #282801",
"*  c #353500",
"=  c #3C3B00",
"-  c #222222",
";  c #242925",
":  c #2A2A2B",
">  c #283429",
",  c #333333",
"<  c #373C37",
"1  c #2A6A16",
"2  c #2B6D1C",
"3  c #38751C",
"4  c #344E2F",
"5  c #3B4738",
"6  c #1C7532",
"7  c #2A6E22",
"8  c #36692B",
"9  c #247622",
"0  c #267A27",
"q  c #2A7922",
"w  c #2E772E",
"e  c #327625",
"r  c #387626",
"t  c #327A26",
"y  c #3D7A22",
"u  c #38772E",
"i  c #387A2A",
"p  c #2A7D32",
"a  c #297835",
"s  c #327C32",
"d  c #387D32",
"f  c #327E38",
"g  c #387F38",
"h  c #464500",
"j  c #4E4D01",
"k  c #555400",
"l  c #5A5900",
"z  c #585815",
"x  c #44791C",
"c  c #666500",
"v  c #6A6900",
"b  c #746D0A",
"n  c #787700",
"m  c #565623",
"M  c #4A513D",
"N  c #407626",
"B  c #447A23",
"V  c #467B29",
"C  c #407D2A",
"Z  c #43633C",
"A  c #407E33",
"S  c #497B32",
"D  c #497F38",
"F  c #537E37",
"G  c #707534",
"H  c #367E40",
"J  c #484A46",
"K  c #485546",
"L  c #525252",
"P  c #5B5B5B",
"I  c #4A6E42",
"U  c #597A44",
"Y  c #597656",
"T  c #656E63",
"R  c #6A6A6A",
"E  c #6A7568",
"W  c #757875",
"Q  c #FF0100",
"!  c #FF0C00",
"~  c #FF1700",
"^  c #FF2000",
"/  c #FF3E00",
"(  c #9D7600",
")  c #FF4B00",
"_  c #FF5600",
"`  c #FF7800",
"'  c #27822A",
"]  c #35822A",
"[  c #298832",
"{  c #328532",
"}  c #388332",
"|  c #3D8A35",
" . c #328438",
".. c #388438",
"X. c #328C38",
"o. c #388C38",
"O. c #38913B",
"+. c #42822A",
"@. c #49842A",
"#. c #548527",
"$. c #408332",
"%. c #498432",
"&. c #4B8A32",
"*. c #428538",
"=. c #498638",
"-. c #428B38",
";. c #498B3B",
":. c #538B32",
">. c #598C32",
",. c #518538",
"<. c #518C3B",
"1. c #5C8E38",
"2. c #40913D",
"3. c #49913B",
"4. c #599339",
"5. c #628C37",
"6. c #629538",
"7. c #2E8440",
"8. c #328747",
"9. c #388540",
"0. c #3B8C40",
"q. c #368B49",
"w. c #428641",
"e. c #498640",
"r. c #428C40",
"t. c #4B8D40",
"y. c #4C834E",
"u. c #418D4A",
"i. c #4B8E49",
"p. c #538742",
"a. c #588640",
"s. c #538E40",
"d. c #5C8C44",
"f. c #538E49",
"g. c #59894D",
"h. c #429241",
"j. c #4B9342",
"k. c #4B9349",
"l. c #47984A",
"z. c #539342",
"x. c #5C9442",
"c. c #539C42",
"v. c #5F9A45",
"b. c #539549",
"n. c #5C964C",
"m. c #559A4B",
"M. c #5C9B4B",
"N. c #4F8652",
"B. c #4B9A53",
"V. c #539953",
"C. c #5C9D54",
"Z. c #569B5B",
"A. c #678E4A",
"S. c #659944",
"D. c #63964C",
"F. c #699649",
"G. c #639C4B",
"H. c #74944E",
"J. c #668756",
"K. c #629D55",
"L. c #689857",
"P. c #769D5A",
"I. c #58A24B",
"U. c #5CA255",
"Y. c #59A557",
"T. c #66A24B",
"R. c #63A355",
"E. c #6AA453",
"W. c #63A45C",
"Q. c #6AA65C",
"!. c #63AA5D",
"~. c #6AAA5D",
"^. c #77AC54",
"/. c #75A95A",
"(. c #6B896A",
"). c #768A6F",
"_. c #689863",
"`. c #729A64",
"'. c #7C9576",
"]. c #5FAA69",
"[. c #6CA663",
"{. c #66AA67",
"}. c #6CAC62",
"|. c #77A866",
" X c #75AF68",
".X c #6BB46A",
"XX c #78B467",
"oX c #79A473",
"OX c #66B275",
"+X c #7EBB74",
"@X c #858400",
"#X c #8D8B00",
"$X c #979500",
"%X c #939210",
"&X c #9F9D18",
"*X c #A9A702",
"=X c #B1AF00",
"-X c #B5B300",
";X c #BAB800",
":X c #FD9600",
">X c #FFA300",
",X c #FFAE00",
"<X c #FFBD00",
"1X c #C6C400",
"2X c #C9C600",
"3X c #CDCA01",
"4X c #D8D600",
"5X c #FFC900",
"6X c #E1DE00",
"7X c #FFDC00",
"8X c #EAE700",
"9X c #FFE500",
"0X c #F2EF00",
"qX c #F5F200",
"wX c #FCF400",
"eX c #FFFC00",
"rX c #FFFC0F",
"tX c #FFFD3F",
"yX c #84A656",
"uX c #829972",
"iX c #84A665",
"pX c #87A976",
"aX c #88B978",
"sX c #88C17A",
"dX c #EAE856",
"fX c #F3F16C",
"gX c #FBFA7A",
"hX c #89898A",
"jX c #8F958C",
"kX c #969695",
"lX c #89AA87",
"zX c #95AA8C",
"xX c #A7ABA7",
"cX c #BBBBBA",
"vX c #A0C39F",
"bX c #F7F6A1",
"nX c #C6D0C4",
"mX c #D5D5D5",
"MX c #FFFFCF",
"NX c #F0F0F1",
/* pixels */
"4.^.T.i d.Q.d A XXd C.o.s V.d n.*.e t.Q.z.d t.K.k.} *.d e...b.W...s h.;.z.M.u w %.} O. .w C.+X| %.~.E.N d.[.g U .XA K...w C.A b.",
"] &.~.<.$.D.[.*.&.u Q.m.V.[.t.s.=.k.-.t.u t.-.t.G.| } ;.D.%.%.y r.s t e ;.C.j.e.E.j.2.s u. XM.s ] ;.~.d.A C.[.e.,.d [.b.b.}.t.s.",
"..r.z.;.L.C.Q.*.%.G.~.t.d $.d %.W.A 2 m.} b.*.$.$.@.z.x.G.A @.@.Y...-.;.$.$.*.k.:.} j.q =.D.r 4...-.b.;.Q.L.[.$.%.D.[.t.d $.r =.",
"r.-...*. X=.b.A S./.M.] i $.<.L.C.e | XX} e.M.t i u s.j.b.d ;.M.U.d ;.R.n.e 2 ..%.+.I.3.=.d.,.aXh.*...*.XX$.s.A S.^.x.A $.i <.T.",
"o.e b.k.-.2 Q.A S.G.A $.M.f.s.d.t z.+XC.d u M.s h.{ } f q...u.r.d 7 i 4.M.%...*.R.&.-.I.s.d.W.n...0 l.b.*.2 W.d D.n.u ;.C.;.<.x.",
"t.C.~.$.w.t.}.*.&.&.$.n.b.A $.x.u m.U.u C.$.*.b.0.o.u.p 9.g r...r b.;.%.A $.t.b.M.t q &.C S n.9 t.C.~...-.j.}.D ,.%.$.m.m.i +.z.",
"F.XXK.e M.!.;.z.;.*.j.V.w.A b.XXW.d e t.XX;.*.b.u 3.U.d *.-.s.&.f.+XD.=.z.$...i.d s 2.$.S d.t.a F.|.D.r n.{.i.w.%.d t.V.r. .m.XX",
"5.@.:.I ; - - - - - K 0...*.A -.sXe b.+Xz.d b.*.4.v.S.i <.F.F.B  X[.2 =.aXU.d w ] o.Y.$.x.}...8.5.S <.*.4 4 4 4 Z 8 8 ..f -.| | ",
"1.@.@.5             , 4.#.].OXB =.o.p.,.[ l.iXd.&.*. .w.z.&.g f A A r XXC.7 i.t.i.E.:.y ..y.U.1.&.d y [.o             6.V {.{.B ",
":.4.x.J             $ (.J.s.K.e.F ;.[ [ K.iXx.q <.b.9.9 } z.w.p n.M.d $.*.i.W.e g s.&.&.w.H e.y &.L.`.E .             [.{ z.U.k.",
"*.m.b.5                   A.#.8.l./.!. .S 3.{ A./.z.g r.G.;.-.Z.Q.f.-.e.i.f.V.e.M.<.&.M.i.9.b.<.*.K                   y.6 B #.7.",
"w *.*.5         . X X X . Y &.Z.p a.iXt.*.B.o.iXF.*.g Y.R.y d {.b.*.C.K.i.A w V./.&.3.I.=.e.C.M.e.J X X X X .         y. .D &.Z.",
"f ..-.5         @X3X2X2X2XG > L L.0 | A ;.|.a.[ y *.-.} +.+.$.0.d f.{.-.u i.d g d.N o.-.u <.b.5 5 %X3X2X2X3Xj         J.G.9.q.XX",
"j.k.*.5         *XeXeXeXeXn   # aXX.s.a.{ s.F [ :.M.;.e } x.z.s d =.z.} b..Xr.2 5.$.o.t r 1.L.    =XeXeXeXeXv         U 6. .f 1.",
"M.x.| Y K ,     *XeXeXeXeX$Xj z uX).A.iXY.{ s z.E.f.o.t.K.4.;.V.&.u u z. X!.-.-.H.z.q.f uXiX).j k 2XeXeXeXeXv   o 5 M ..s.*.*.u ",
"&.%.%.T.$.N..   *XeXeXeXeXeXeX4X%   T k.iX<.p j..   . . .   .   . .   .     $ Q.5.+.q. .<   j qXwXeXeXeXeXeXv   ; 1.^.8. .x F.B.",
"8.a l.<.3 P.o   *XwXwXeXeXeXeX8X@   T w X.d | uX.       .     .     .   .   @ cX9.p k.t <   j wXeXeXeXeXwXeXc   > 9.w.i n.x.S.y ",
"q.a w.z.A p.`.J.U j 3XeXeXeXeXqX;X-X%XK K K J G =X-X-X=X=X-X=X=X-X=X=X-X=X-X*XM J J J K &X=X2XeXeXeXeX4Xk j J.,.u.s d u <.<.$.z.",
"s K.{.<.} ;.=.e.L   -XeXeXeXeXeXeXeX#X        k eXeXeXeXeXeXeXeXeXeXeXeXeXeX8X%       . 3XeXeXeXeXeXeX2X    g.} w *.}.%.r m.-..X",
"t ~.R.} ;.C.k.w.W < ;X3X1X8XeXqX3X2X@X* * * * n eXeXeXeXeXeXeXeXeXeXeXeXeXeX8Xk * * * = *X2X4XeXeX4X1X*XM 5 i...=.m.n.} *. Xt.w.",
"-.t.r r M.n.g f b.b.lX$ . $XeX6X& . n qXqX0X0XqXeXwXeXeXeXeXeXeXeXeXeXeXeXeXeX0X0XqX0X8X= . k wXeXk . 4 n.n.g f c.;.1 } s.n.f a ",
"d ;.t.%.=.;.*.o.w k.zXo   #XeX8X@   b eXeXeXeXeXeXeXeXeXeXeXeXwXeXeXeXeXeXeXeXeXeXeXeX0X*   j eXeXj   < ;.-.*...i z.$.%.$.e.b.y.",
"d k.}.R.u =.n.*.f j.`.kXhXG c v $X$X1XeXeXeXeXeXeXeXeXeXeXeXeXeXeXeXeXeXeXeXeXeXeXeXeXwX=X$X@Xv c (.'.oXr ;.M.-.d j.r.r s. XW.9.",
"V.w z.}.z.;.n... . .W.$.Q.R   @ 8XeXeXeXeXeXeXeXeXeXeXeXeXeXeXeXeXeXeXeXeXeXeXeXeXeXeXeXeXeX-X    (.m. Xz.;.m.d X.f U.$.n.D.A D ",
"iXU.q s.V t t =.W...k.s f.R   % 4XeXeXeXeXeXeXeXeXeXeXeXeXeXeXeXeXeXeXeXeXeXwXeXeXeXeXeXeXeX=X    zXi -.e q d e.G.;.h.[  .o.e T.",
"<.-.{ D K.{ j.x.s.u A g L.R   @ 6XeXeXeXeXeXeXeXeXeXeXeXeXeXeXeXeXeXeXeXeXeXeXeXeXeXeXeXeXeX-X  . jX$.| V.} k.b.<.i e *.C.t.t ;.",
"N h.h.t.[.0.-.D.%.=.=.K.`.R   @ 4XeXeXeXeXeXwXrXeXeXeXeXeXeXeXeXeXeXeXeXeXeXeXeXeXeXeXeXeXeX-X    jX0.q.}.t.z.x.=.A A Y.|.p.%.n.",
"D Y. .f.f.0.9 a.z.w.I uX).G n #XqXeXeXeXeXfXgXdX@X#X4XeXeXeXeXeXeXeXeXeXtXgXfX%X@X-XeXeXeXeX4Xn ( J.W (.V.t.N <.j.t.U P.`.D l.K.",
"D B.9 A t. .9 p.b.} 7 o   #XeXeXeXeXeXeXrXMXNXxX    -XeXeXeXeXeXeXeXeXeXbXNXNX;   c eXeXeXeXeXeXqXj   , w.*.8 <.h.o.9 U f.A u.{ ",
"F o.a u K.f { d.] } *.o   #XeXeXeXeXeXeXrXbXNXkX  . ;XeXeXeXeXeXeXeXeXeXfXNXmX-   v eXeXeXeXeXeXeXj   , C.d $.<.{ { f w.f d -.{ ",
"S.o.{ ,.Q.s | d.-.} R.o   #XeXeXeXeXeXeX8Xm : $   . -XeXeXeXeXeXeXeXeXeX%X: - .   v eXeXeXeXeXeXeXj   , [.f -.s.;.} M.m.} u -.M.",
"F.-.9 L.p.{ } F./.r M.o   #XeXeXeXeXeXeX0X&         -XeXeXeXeXeXeXeXeXeXb         c eXeXeXeXeXeXwXj   , V.-...4.P.C z.k.} } %.F.",
"d.A s.=.2 <.|.r } } j.#   #XeXeXeXeXeXeXqXn c l l c 4XeXeXeXeXeXeXeXeXeX*Xl c l l *XeXeXeXeXeXeXwXj   , D z.K.A ;.r ;.q -.j.;.j.",
"..-.b.r.=.n.U.;.r.s.C.o   #XeXeXeXeXeXeXeXeXeXeXeXeXeXeXeXeXeXeXeXeXeXeXeXeXeXeXeXeXeXeXeXeXeXeXwXj   , b.M.C.-.3.&.R.-.-.-.*.-.",
"..U.k.-.k.-.0 f z.;.t.o   #XeXeXwXwXwXwXwXeXeXeXeXeXeXeXqXqXqXwXqXwXeXeXeXeXeXeXeXeXwXwXwXwXwXeXeXj   , Y.j.} t j.-.c.u j.m.t...",
"d | { d w.-.d j.d *.;.o   #XeX9X_ / / / ) 7XeXeXeXeXeXqXv = = = h 1XeXeXeXeXeXeXeX,X/ / / / ` wXwXj   , oX-.-.w.} $.-.r ;.C.n.*.",
";.u u =.%.f.n.C.r <.C.o   #XeX7X~ Q Q Q ! 5XeXeXeXeXeX0X*         =XeXeXeXeXeXeXeX:XQ Q Q Q ) eXwXj   , pXe.G.M.e j.M.$.*.} b...",
"~.=.p.n.;.s.n.D %.n.M.o   #XeX9X~ Q Q Q ~ 5XeXeXeXeXeXqXv h h j j 2XeXeXeXeXeXeXeX:XQ Q Q Q ) wXeXj   , lX=.s.%.} c.M.j.j.*.t.t ",
"z.$.;.b.*.;.f.A s.z.d o   #XeX9X^ Q Q Q ! 5XeXeXeXeXeXeXqXwXwXqXqXeXeXeXeXeXeXeXeX:XQ Q Q Q ) eXqXj   , oX;.;.;.3.j.-.$.b.e.b.w ",
"..} ..*.} ......;.d.$.o   #XeX7X^ Q Q Q ~ 5XeXwXeXwXeXeXeXeXeXeXeXeXwXwXeXwXeXeXeX:XQ Q Q Q ) eXeXj   , oX{ } } 3.z.} t } e t.-.",
"4.G.=.z.;.} T.1.o.e w.o   #XeXwX,X>X>X>X>Xb l l l l l l k l l l k l l l l l l l k ( >X>X>X>X<XeXwXj   , oX' yX4.a } u.-.| C $.&.",
"x.&.A *.-.;.v.1.b...t.o   #XeXeXeXeXeXeX0X&                                       c eXeXeXeXeXeXeXj   , L.-.1.&.k...w.C.-.;.c.M.",
"E.s.n.A A b.C =.t.A d < : %X2X3X3X3X3X3X1Xm , , , < o   o , , , , :     $ , , , , b 3X3X3X3X3X3X2Xm : P ..K.t 1.b.e A K.b.} -.-.",
"=.$.{.*.*.}.$.M.x.=.3 p.[.T . X + + + X # J.f.C.w.Z.J   < f.b.D.;._.#   W w._.vXnXkX+ + O O O O + xXmXlX} iX' d.n.$.r *.j.g 0 g ",
"g *. X=.f.+X$.t.~.E.$.e b.R             o `.n.k.g e.J   M V ,.K.$.[.#   ). . .t.0.kX              kXiXw.V.iXo.=.Q.|.$.e b.r.f m.",
"e.i.C.$.n.}.d 7 M.R.t.d C.oXW W o . < (.'.g.M.} b.j.K   J =.;.z.| L.#   (.i.j.w.0 mXhXhX$   : hXhXnXp.e.W.|.-.p b.}.-.t C.m.w k.",
"..e.y } K.z.w.k...e.*.-.n.e.g L.-   W 9 =.r t.*.d.z.K   5 =.s t.k.s.#   (.*.b.-.b.n.n.nX<   J mXj.z.f =.K.j.-.0.*.-...-.U.j.r | ",
"r.M.e 4.v.2 -. XV.r.f -.z.;.%.|.$   W $.|.A =.w.x <.Y $ L *. .[.4.k., $ (.r n.u =.M.{ D.<   J lX0.a.{ ,.x.0 S .XZ. ...b.;.$.;.1.",
"4.XXE.y ;.P.f *.XXu K.d g k.*.Q.$   W Q.z.$.<.W.k.r r.i.b.} D.C.[ ..b.f.K.b.2 -.%.} ..Z.<   J oX4.^.E.B s.W.d *.XXD W.w.w V.A n.",
"C &.~.&.d C.[.=.n.A }.z.V.K.=.*.#   E -.u =.*.,.R.$.*.&.M.=.%.r l.r i i =.n.t.w./.i.o.lX,   J L.i <./.3.A C.[.=.,.A Q.V.z.{.;.;.",
"} w.z.;.R.C.Q.=.C S.|.=.$.$.$.<._.Y Y '.(.C.*.d &.C z.v.K.C &.%.Z.s -.z.i *.t.*.,.lXjXhXW R jXk...=.m.-.W.C.[.$.,.G.Q.=.d =.y $.",
"r.*.g -.XX=.b.A F./.K.d d } ,.D.U.e J.  o L.M.d ..t ;.z.s.d s.n.U.w ;.E.z.d  .d %.kX  o cXzX&.XXr.w...*. X$.b.A F.^.x.d $.A <.G.",
"9.e l.m.=.2 Q.d G.T.$.e.M.z.<.1.r f.pXo $ J.C.d B.9...s o.9.k.j...A d d.K.x.*.y.aXkXo $ cX1.K.M.o.0 k.b.-.2 [.A G.F.d ;.M.;.&.c.",
"r.C.~.=.t.t.Q.A C $.d M.b.;.%.G.u i._.y.oXJ , , , , , , , , , , , , , , , , , , , R cXcXP.%.b.9 r.n.~.$.e.t.[.$.%.%.*.m.b.i $.n.",
"v.XXG.r M.Q.t.w.;.} *.Y...A ;.|.}.d u b.aX:                                       P xX| A <.e.p G.XXG.e n.Q.t.e.d i j.V.*...b.XX",
"4.V :.$.N ;.d t.U. .0 u.p h.$.<.aXe f.+Xh.Y L L L L L L L L L L L L L L L L L L L kX.X} z. X .8.1.@.1.$.A ;.u -.W.$.......h.-.$.",
"1.%.@.G.%.C ,.P.6.f 9.1.:.{.OX3 e.o.,.,.[ B.iXD.A.k.i.Z.L.n.w.q.g.f.w.aX{.D {._.oXXX:.C H i.K.#.4.+.+.G.@.S ,.^.F.r 2.d.,.Y..XC ",
",.x.n.M.z.4.=.%.-.&.E.Y.*.s.E.r.,.-.[ [ S.|.s.e <.b.s 9 d x.-.a K.b...*.A f.{.w A <.@.;.w.H *.x ;.z.M.M.1.d.,.,.| ;.R.U.$.z.[.j.",
"%.M.M.} ;.;.=.s.a x #.8.a B #.8.l.iX}.[ S t.p A./.z. .w.M.;.| Z./.e.-.3.e.f.b.f M.<.&.M.N.$.p.&.o.m.M.$.e.;.;.p.' S =.o.9 V ,.o.",
"u *.w.r l.d -.W.h.:.@.o...C *.Z.0 a.iXs.=.B.2.iXT.} s U.R.N s {.A.d V.U.e.A u u./.;.3.R.e.e.K.n.t -.*.t f.d $.C.j.&.%.} *.d ;.V.",
"u *.*.} Y.i.-.b.G.l.h.S.x...u.XXH.0 o.} p.|.d.X.x $.-.g $.%.$.0.A ;.!.*.r n.e.o.4.C o.h.A ,.z.*.u *.w...W.t.*.b.M.j.j.G.D...r.XX",
"f.b.o.e m.n.e.u #.7.a 5.6.8.f 1.aXo.s.a.} t.S p :.n.w.q %.c.s.d %.;.j.} f. Xf.9 1.| 0.p r d.z. .b.b.*.t M.n.w.u ,.] ' d.A.[ ' d.",
"K.n.d d } t.e.%.&.} | $.;.t.*.u { d A.iXY.{ t s.E.z.} t.G.4.;.V.4.u ] z.~.W...s 6.<.q.p %.F.z.0.C.n.d d $.t.=.$.%.} *.} ;.r.*.u ",
",.$.*.W.*.d A K.o.6.S.q.a :.x.u.;.F e B.iXs.' j.4.C t b.v.B r V.G.;.t j.n.N d U.>.o.q. .G.H.N a t.A %.R.=.d } R.{ S.L.-.0 =.d.h."
};
