/* XPM */
static char *oie_2422155xFEDMJIp_removebg_preview1682366561[] = {
/* columns rows colors chars-per-pixel */
"64 64 213 2 ",
"   c None",
".  c #3F2500",
"X  c #353100",
"o  c #3D281A",
"O  c #242D1C",
"+  c #222C21",
"@  c #3F2320",
"#  c #363E2D",
"$  c #252A3C",
"%  c #2C2D3F",
"&  c #2C3831",
"*  c #2E3838",
"=  c #393D3A",
"-  c #412D00",
";  c #4D3D01",
":  c #423C0F",
">  c #483907",
",  c #482C19",
"<  c #413816",
"1  c #593D17",
"2  c #593F1E",
"3  c #553919",
"4  c #543713",
"5  c #47312B",
"6  c #533A24",
"7  c #5A3E24",
"8  c #5D3C2B",
"9  c #553725",
"0  c #4A3938",
"q  c #5B3D34",
"w  c #573D37",
"e  c #442D32",
"r  c #623F3B",
"t  c #39423D",
"y  c #494519",
"u  c #5A4319",
"i  c #624919",
"p  c #7C6415",
"a  c #5D4023",
"s  c #5D442D",
"d  c #5F4829",
"f  c #574133",
"g  c #5C413B",
"h  c #5C4537",
"j  c #5F5A23",
"k  c #654C2D",
"l  c #635B25",
"z  c #655C25",
"x  c #624435",
"c  c #654933",
"v  c #64453D",
"b  c #65493A",
"n  c #6C4B3B",
"m  c #684E33",
"M  c #665139",
"N  c #72523D",
"B  c #775E26",
"V  c #686022",
"C  c #7D6627",
"Z  c #282647",
"A  c #2A3347",
"S  c #3C3E4C",
"D  c #333942",
"F  c #3E2B57",
"G  c #343C57",
"H  c #393B64",
"J  c #3F3772",
"K  c #4D2F4B",
"L  c #4B3849",
"P  c #533D44",
"I  c #583C4A",
"U  c #493A52",
"Y  c #533B54",
"T  c #583B5B",
"R  c #433A6C",
"E  c #463B63",
"W  c #513F6C",
"Q  c #3D4644",
"!  c #39425B",
"~  c #3E4764",
"^  c #5B4846",
"/  c #4B5340",
"(  c #57564C",
")  c #434351",
"_  c #4A4859",
"`  c #584756",
"'  c #4C5D5C",
"]  c #585759",
"[  c #474546",
"{  c #624444",
"}  c #664943",
"|  c #6B4B4B",
" . c #694A4C",
".. c #684A55",
"X. c #714F50",
"o. c #67575C",
"O. c #705055",
"+. c #51615C",
"@. c #706C5B",
"#. c #4A4D62",
"$. c #464566",
"%. c #554D6B",
"&. c #4C5469",
"*. c #565266",
"=. c #464478",
"-. c #4E5275",
";. c #644A62",
":. c #62576A",
">. c #635D6C",
",. c #625C66",
"<. c #655C72",
"1. c #695C76",
"2. c #6E6A68",
"3. c #786876",
"4. c #6E7E7B",
"5. c #706B67",
"6. c #81662B",
"7. c #86754A",
"8. c #877353",
"9. c #897554",
"0. c #87735B",
"q. c #8B745C",
"w. c #836C62",
"e. c #8A7263",
"r. c #8B7369",
"t. c #847361",
"y. c #90756E",
"u. c #83867D",
"i. c #585889",
"p. c #575796",
"a. c #525092",
"s. c #655687",
"d. c #60569F",
"f. c #63648A",
"g. c #7C6C8C",
"h. c #726B9F",
"j. c #78779B",
"k. c #696E9D",
"l. c #5755BA",
"z. c #6054A8",
"x. c #5F6BBC",
"c. c #6C66A8",
"v. c #746CA4",
"b. c #776DAF",
"n. c #7B6EAB",
"m. c #7A78A6",
"M. c #6764B7",
"N. c #656CB4",
"B. c #636BBB",
"V. c #6C6ABB",
"C. c #6E6CB5",
"Z. c #766AB7",
"A. c #7D73B4",
"S. c #7D71B9",
"D. c #7372B3",
"F. c #6A75A2",
"G. c #5A59DA",
"H. c #5757CD",
"J. c #6B5EC2",
"K. c #635AD8",
"L. c #5F69C3",
"P. c #5F65C9",
"I. c #6363C2",
"U. c #6965C2",
"Y. c #626CC5",
"T. c #6C6AC3",
"R. c #6466CA",
"E. c #656BCB",
"W. c #6B6BCA",
"Q. c #6B61CB",
"!. c #7467CA",
"~. c #6563D1",
"^. c #6D6CD3",
"/. c #6561DC",
"(. c #6968D2",
"). c #7468D8",
"_. c #6C74D9",
"`. c #7577D2",
"'. c #6B66E5",
"]. c #746FEF",
"[. c #6D71E6",
"{. c #806E9E",
"}. c #867799",
"|. c #8475A6",
" X c #8270BA",
".X c #8678CF",
"XX c #94998D",
"oX c #899096",
"OX c #949FA1",
"+X c #96A3AB",
"@X c #8D97C3",
"#X c #A2ADCD",
"$X c #A3B0D2",
"%X c #B6BDCE",
"&X c #B7C1D0",
"*X c #D2D4CF",
"=X c #D1CCD9",
"-X c #CFD3D2",
";X c #DBD1D0",
":X c #CFCBCA",
">X c #DFE1DC",
",X c #EDF6DE",
"<X c #FBE9DF",
"1X c #D1DDEC",
"2X c #DEDFF5",
"3X c #F3EFEE",
"4X c #FCF7EB",
"5X c #E2EDFF",
"6X c #E9EEFF",
"7X c #E8F0FF",
"8X c #FEFEF5",
"9X c #FFFCFC",
"0X c #EDEBEC",
/* pixels */
"                                                                                                                                ",
"                                                                                                                                ",
"                                                                                                                                ",
"                                                                                                                                ",
"                                                                                                                                ",
"                                                                                                                                ",
"                                                                                                                                ",
"                                                                                                                                ",
"                                                                                                                                ",
"                                                                                                                                ",
"                                                                                                                                ",
"                                                                                                                                ",
"                                                                                                                                ",
"                                                                                                                                ",
"                                                                                                                                ",
"                                                                                                                                ",
"                                                                                                                                ",
"                                                                9 6 f 0 f s 7 3 3                                               ",
"                                                6.B l j z V 6.6.p C V V j l B 6.-                                               ",
"                                                6.> < 3 < X y - . ; X X y : > C i                                               ",
"                                                b , *.:.<.*.3.o.o.3.:.*.2.] o x 9                                               ",
"                                              q | I {.E =.J K Y W F R =.E g.I  .q r.                                            ",
"                                              q r I s.Z v.f.Z }.}.Z f.j.Z <.I w q @.                                            ",
"                                              s v ^ >.#.6X%X! -X=X) &X7X#.,.g v x w.                                            ",
"                                              a d h ( * 4.] # @.@.* +.4.& ( M d 7 t.                                            ",
"                                              a M 5 2.* ' +.O h / + ' ' & 5.o k 7 w.                                            ",
"                                              q  .L *.-.5X#XS 2X2X! $X5X&.*.h ^ q e.                                            ",
"                                            r.q { ..-.~ @Xk.~ j.j.$.F.@XH *.o.g r r.                                            ",
"                                            e.8 { ^ <.A ~ G D S Q $ G ! $ 2.^ 8 8 r.                                            ",
"                                            q.8 n w ;._ 1X+X= *X-Xt +X1X#.,.g x 8 e.                                            ",
"                                            e.8 n 5 ,._ %X+X# XXXXt +X&X] 2.f N 8 e.                                            ",
"                                            e.8 v { :.$ G A % ) S $ A ! A 2. .x 8 e.                                            ",
"                                            e.r X.T n.C.N.N.N.V.V.c.F.k.v.|.T X.r y.                                            ",
"                                            r.x O.T S.W.Y.Y.(.^.J..Xa.=.J h.;.| r r.                                            ",
"                                            e.8 | Y b.U.B.L.R.T.c.v.Z f.$.1.5 n k 8.                                            ",
"                                            q.7 n L v.N.x.x.Y.V.c.m.H &.F 3.q k 1 9.                                            ",
"                                            q.7 v L v.C.B.Y.Y.W.V.N.p.a.a.j.w c 1 9.                                            ",
"                                            9.2 b P v.N.x.Y.E.(.^.H.E.E.`.n.e c u 9.                                            ",
"                                            9.7 c L v.V.Y.P.K.K./.].].H.H.Z.*.c u 9.                                            ",
"                                            9.u b L b.R.E.(././.K.[.G.[.[.z.Y s u 9.                                            ",
"                                            9.2 v L S.P.~.[.K.'.~.P.[.R.R.A.e k u 7.                                            ",
"                                            8.c { Y S.J.E.[.K.'.^.I._.L.V.A.0 m u 7.                                            ",
"                                            0.6 } T S.U.R.).K.'.^.R.(.L.U. XL n 1 9.                                            ",
"                                            0.8 w Y n.M.B.V.M.Q.K.J.Y.I.U.S.K r s 0.9X                                          ",
"                                            e.6 } ` |.b.D.A.b.!.!.!.W.T.W. XT ..q w.9X                                          ",
"                                          :Xt.s q 0 s.i.i.-.s.s.d.d.i.i.d.s.K I v w.;X>X                                        ",
"                                        oX[ o < 6 e $.E _ ) ` U U _ Q [ ) ` @ 8 , , ^ u.                                        ",
"                                          0X                    3X8X,X,X4X8X4X4X4X4X                                            ",
"                                                                                                                                ",
"                                                                                                                                ",
"                                                                                                                                ",
"                                                                                                                                ",
"                                                                                                                                ",
"                                                                                                                                ",
"                                                                                                                                ",
"                                                                                                                                ",
"                                                                                                                                ",
"                                                                                                                                ",
"                                                                                                                                ",
"                                                                                                                                ",
"                                                                                                                                ",
"                                                                                                                                ",
"                                                                                                                                ",
"                                                                                                                                "
};
