/* XPM */
static char *_14d41619c894913c91e011aeb242f7fbbfzmXhMDh8YQZEF[] = {
/* columns rows colors chars-per-pixel */
"64 64 246 2 ",
"   c #040305",
".  c #0D0416",
"X  c #130A1B",
"o  c #19191A",
"O  c #190629",
"+  c #1E1229",
"@  c #221A29",
"#  c #240A3A",
"$  c #271536",
"%  c #29272A",
"&  c #322A39",
"*  c #383839",
"=  c #2C6D1C",
"-  c #36751C",
";  c #1C7532",
":  c #2B6D22",
">  c #356D26",
",  c #277824",
"<  c #2E772E",
"1  c #327624",
"2  c #387626",
"3  c #327A26",
"4  c #3C7A23",
"5  c #38772E",
"6  c #387A2A",
"7  c #2A7935",
"8  c #3C7137",
"9  c #327C32",
"0  c #387D32",
"q  c #327E38",
"w  c #387F38",
"e  c #457A1C",
"r  c #437925",
"t  c #407D2A",
"y  c #407E33",
"u  c #497C32",
"i  c #497F39",
"p  c #527D37",
"a  c #2A0946",
"s  c #2E1247",
"d  c #331A49",
"f  c #320C53",
"g  c #380D5B",
"h  c #3A1658",
"j  c #392848",
"k  c #3E3A43",
"l  c #3E2751",
"z  c #3D0D66",
"x  c #3D1161",
"c  c #423B49",
"v  c #472B5E",
"b  c #493A56",
"n  c #420E6E",
"m  c #421668",
"M  c #450E74",
"N  c #4B1378",
"B  c #4C2B68",
"V  c #5A3876",
"C  c #367E40",
"Z  c #434344",
"A  c #474549",
"S  c #4B4B4C",
"D  c #4E4853",
"F  c #524B58",
"G  c #4D5650",
"H  c #535354",
"J  c #565958",
"K  c #5C5C5C",
"L  c #5A7C40",
"P  c #5B6659",
"I  c #5B7A57",
"U  c #594A67",
"Y  c #5E5962",
"T  c #625B67",
"R  c #644A7A",
"E  c #695878",
"W  c #646464",
"Q  c #616B61",
"!  c #676768",
"~  c #6B6B6C",
"^  c #68756A",
"/  c #6B6773",
"(  c #716C76",
")  c #737374",
"_  c #797A7A",
"`  c #27822A",
"'  c #36852D",
"]  c #298733",
"[  c #328532",
"{  c #388332",
"}  c #398A36",
"|  c #328438",
" . c #388438",
".. c #388C38",
"X. c #46842A",
"o. c #548627",
"O. c #408332",
"+. c #498432",
"@. c #4B8A32",
"#. c #428538",
"$. c #498638",
"%. c #428B38",
"&. c #498B3B",
"*. c #578B32",
"=. c #518538",
"-. c #518C3B",
";. c #5C8E38",
":. c #45913C",
">. c #599339",
",. c #628D39",
"<. c #629538",
"1. c #2E8440",
"2. c #388540",
"3. c #358A47",
"4. c #3B8C40",
"5. c #3B9246",
"6. c #428641",
"7. c #498640",
"8. c #428C40",
"9. c #4B8D40",
"0. c #418D4A",
"q. c #4B8E49",
"w. c #538742",
"e. c #598744",
"r. c #538E40",
"t. c #5C8D44",
"y. c #538E49",
"u. c #429240",
"i. c #4B9342",
"p. c #46964A",
"a. c #4B9349",
"s. c #539342",
"d. c #5C9442",
"f. c #5A9B44",
"g. c #539549",
"h. c #5C964B",
"j. c #559A4B",
"k. c #5C9B4B",
"l. c #519356",
"z. c #539953",
"x. c #5C9D54",
"c. c #56995B",
"v. c #668B4A",
"b. c #669944",
"n. c #63964C",
"m. c #699649",
"M. c #639C4B",
"N. c #648958",
"B. c #619D55",
"V. c #6A9A58",
"C. c #769C53",
"Z. c #58A24B",
"A. c #5CA255",
"S. c #5AA557",
"D. c #67A24A",
"F. c #63A355",
"G. c #63A45C",
"H. c #6AA65C",
"J. c #68A85A",
"K. c #78AE57",
"L. c #74A859",
"P. c #738A6A",
"I. c #728D6B",
"U. c #679766",
"Y. c #749B67",
"T. c #798479",
"R. c #6CA662",
"E. c #65AB67",
"W. c #6CAC62",
"Q. c #77AB66",
"!. c #6BB469",
"~. c #78B467",
"^. c #74A876",
"/. c #7EBB74",
"(. c #84A656",
"). c #81957A",
"_. c #85A767",
"`. c #82AD75",
"'. c #88B975",
"]. c #88C17A",
"[. c #4F1183",
"{. c #531486",
"}. c #54128B",
"|. c #5A1494",
" X c #5E149B",
".X c #60159E",
"XX c #631C9E",
"oX c #652897",
"OX c #662D95",
"+X c #683990",
"@X c #6215A1",
"#X c #70518B",
"$X c #76479D",
"%X c #7C539E",
"&X c #7B5898",
"*X c #7B6A8B",
"=X c #7D4EA3",
"-X c #815D9F",
";X c #867B8F",
":X c #84679C",
">X c #8B7899",
",X c #8159A3",
"<X c #8664A3",
"1X c #9579AC",
"2X c #A178C2",
"3X c #838383",
"4X c #888889",
"5X c #8B8B8C",
"6X c #8B9689",
"7X c #8B948E",
"8X c #94899C",
"9X c #939394",
"0X c #98969B",
"qX c #9D9D9D",
"wX c #92B18C",
"eX c #9DA39B",
"rX c #A0A29F",
"tX c #A0BE9C",
"yX c #9889A5",
"uX c #9E9AA1",
"iX c #9E82B6",
"pX c #A999B6",
"aX c #A2A3A2",
"sX c #A6A7A8",
"dX c #ABABAB",
"fX c #AEA9B3",
"gX c #B3ADB8",
"hX c #B3B4B3",
"jX c gray73",
"kX c #B4C8B1",
"lX c #C4CDBE",
"zX c #B392CE",
"xX c #B9A7C9",
"cX c #C8B4D8",
"vX c #C8C8C8",
"bX c #D0CAD6",
"nX c #D6D6D6",
"mX c #DBD4E2",
"MX c #E5DDEC",
"NX c #E3E3E3",
"BX c #E5E0E9",
"VX c #ECECEC",
"CX c #F1EBF6",
"ZX c #F4F4F4",
"AX c #F8F7F9",
"SX c #FDFDFD",
/* pixels */
">.L.D.4 t.H.0 y ~.0 x...9 z.0 h.#.2 9.H.s.q &.B.a.{ +.w 7. .g.G. .0 u.&.s.k.6 < +.{ ..| < x.'.} @.H.J.r t.R.w L !.y B. .< x.y g.",
"' @.H.-.y n.R.#.@.6 H.j.z.R.9.r.+.a.%.9.0 &.%.9.M.} { &.M.+.+.4 8.9 6 1 &.x.i.7.F.i.:.[ 0.Q.h.0 ' $.J.t.y B.R.7.=.0 R.g.g.W.9.r.",
" .8.s.&.V.A.H.#.+.M.W.&.0 O.0 +.H.0 = j.O.g.#.O.O.X.s.d.M.y X.X.A. .%.&.O.O.#.q.*.{ :.3 $.n.2 s. .&.g.&.H.n.R.O.$.n.W.9.0 O.2 $.",
"8.%. .%.Q.$.g.y b.L.k.' 6 O.y.n.x.1 } ~.{ 7.j.6 6 6 r.i.h.0 &.j.x.q %.F.h.1 =  .+.X.Z.:.$.t.-.~.u.#. .#.~.O.y.y b.L.d.y O.6 -.M.",
".., g.a.%.= H.0 b.M.O.O.k.y.r.t.3 s./.x.0 5 k.0 u.[ q q 0.w 0.8.0 : 4 d.k.&. .#.F.@.%.Z.-.t.G.h. ., a.g.#.= H.0 M.h.6 &.x.$.-.d.",
"9.x.J.#.7.&.W.#.@.@.O.h.g.y O.d.5 j.A.5 x.O.#.g.4.4.5.9 2.w 8. .1 g.9.n.w.O.9.g.j.3 , @.t u h., 9.x.W. .%.i.W.i =.+.{ j.j.6 X.s.",
"m.~.M.1 k.J.i.9.{ 6 9.z.6.y s.~.G.0 3 9.~.$.#.g.5 I Y.6 #.%.r.@.y.'.wX<XW Y. .q.0 9 :.O.u t.9.7 m.Q.M.2 h.E.q.q.+.0 9.z.8. .j.~.",
",.u *.O.6 %.0 7.J.0  .4. .#.y &.].1 g./.s.0 g.O.P.Y.P.G V.m.m.r Q.tX2XxX4XK N.< { ..S.O.d.R. .3.,.u -.O.0 8.5 q.F.O.#. .q &.} } ",
"*.X.X.M.+.+.&.G.<.q 0.;.o.E.!.r +...w.&.] p.Q.v.Q %.jX~ K Y.c.U.^./ bXVXhX3XJ y.q.J.*.4  .q.c.;.@.O.4 F.4 *.+.L.*.{ 3.;.X.E.E.r ",
"*.>.d.b.>.s.@.+.O.+.F.x.0 r.B.7.=.$.] ] M._.h.6 P nXrX&X{.c c Z & c ZXnXrX0XS $.y r.X.@.6.C 7.r @.s.d.h.s.t.=.=.#.-.M.E.' s.B.a.",
"#.j.g.O.&.&.&.@.| o.*.5.0 r o.3.z.Q.J.{ u i.[ V.iXvXK @ ( 5X3X3XE H bXsXuXK T.7.h.*.@.k.q.2.g.-.O.s.x.6 s.y =.9.7 o.o.5.; r o.1.",
"< #.6.3 s.6 +.F.%.+.r  .2.6 $.c., =.`.&.$.z...>XCXhX( aXrXuXuX8X&X9XrXrXqXD ).z.L.@.:.Z.$.$.x.j.< #.9.1 g.2 %.A.u.+.r 4.[ +.@.c.",
"q  .%. .H.&.@.s.>.p.u.d.d.2.0.Q.V., } y &.Q.e.<XSXAXVXAXvXaX0X-X8XrXrXqXrXT _ { t.r ..%.6 -.g. .2 O. .#.x.q.#.a.b.a.a.>.b.2.0.~.",
"a.a.#.1 g.h.&.2 *.3.1.;.<.5.1.;.'...-.e.{ w.N.zXSXSXAXAXSXjXrX0XqXrXqXqXrXqXZ 0X,.O.4.3 2 ;.w.| g.x.0 0 9.S. .2 *.| 1.*.>.1. .*.",
"k.d.O.6 0 &.#.%.+.{  .+.O.%. .2 { 0 v._.A...P.ZXSXSXSXSXNXhXqXrXqXqXrXqXqXrXW ) C.r.5.q +.b.v.5.n.h.y 0 0 9.#.#.@.' #.0 r.#.6.5 ",
"@.+.@.F.O.0 { S...<.D.5.7 X.h.p.-.=., 0._.P.ZXSXAXSXSXNXfXqXqXuXrXqXqXqXqXqXqXk sXO.3.| d.b.4 ; 9.y r.h.&.3 O.A.| *.D.3. .r m.p.",
"3.7 p.r.- >.K.=.1 2.8.6 h.d.h.0 h.t.s.3  .nXSXSXAXSXBXfXrXqXrX0X:X0XrXqXqXqXrXk sX7 a.3 g.w w.x.3.q q.g.- d.K.@.7 2.#.5 h.d.b.4 ",
"0.7 6.s.y y -.+.5.< { 6 r.r.y g.- k.D.%.8 nXSXSXSXSXxXpXhX0XF c OX0XqXqXeXqXqXk sX, j.{ , $./.W.5.q 6.g.+.O.-.u 0.7 0 6 r.-.0 s.",
"7 A.G.s.O.&.+.#., &.W.+.1 h.#.!.m.i.6  .U 1XBXnXSXcXzXMXjXJ 4XfXcXrXqXqXrXqXW J W kXW.J.y y -.r q A.W.y.+.&.9.O.< %.W.$.2 g.&.!.",
"2 H.F.O.&.x.q. .$.h.d.O.{ ~.q.0.L.$.r.x.0.U cX1XAXzXzXnXK h U NXVXaXrXqXrX0XZ ~ ;XK wXH.V.&.1 -.3 W.H.O.r.x.q. .&.g.h.O.#.~.9.6.",
"%.9.2 2 k.x.0 q g.9.1 O.9.h.w 7 +.$.!.g.8.*XxX2XSXcXzX2Xd M $ gX1X0XuXuXrXK H 9X9Xc gXt &.r.r.'.$.9.2 r h.h. .q f.$.= O.r.h.w 7 ",
"0 &.9.+.$.&.#...1 a.O.O.y 7.g.6.k.5 x. .G.T.Y MXSXAXzXv ;X,Xd #XyXuXrXrX9XH o ) rX).S B., 7.H.h.0 9.r.{ &.%.#. .6 s.O.+.{ 7.y.q.",
"0 a.W.F.5 $.h.#.q i.9.= -.~.H.O.'.{ 9.U.A % * CXSXSXCX( V >X9X8XuXqXqX9XT 9XK W aX7X* ^.6.9.x.9 w g.W.F.6 &.k.%.9 i.%.1 y.Q.G.6.",
"z.< s.W.s.&.h. .|  .G.{ h.n.y O.W.n.J & +X#X* NXSXSXnXrX0XqXrXrXrXaX9XW 5XvXF ( rX_ T N.g.0  .7.z.< g.Q.s.&.g.0 | | A.O.h.n.0 i ",
"_.A., -.u 1 3 $.G. .a.9 a.w , E.E.W E %X%XoXd 3XnXNXvX_ ~ 9XeX) ( ;XS * 0XT N ,X:X* kX=.L.c.5.M.K.D.5 %.1 3 q $.k.&.u.] [ ..1 D.",
"-.%.{ i B.[ i.d.r.5 y w h.x.0 $.! b %XE oX@X[.l W K K H Z J K d g M X a O O [. Xn T vXw 0.L.m.q @.&.O. .z.{ a.g.-.6 1 #.A.9.6 $.",
"r u.u.9.R.2.8.b.+.i $.B.T.T.P.^.B [.$Xv g |.@X}.f f O % H X   N n [.f M V D v a / bXd.2.w ;.t.<  .g.4.5.E.&.w.d.$.O.y x.Q.w.+.j.",
"i S.1.y.y..., t.s.7.w P.( >XW * f @X X|.O }..X X[.a b % # D T #X+ oX&Xc R aX) J ( vXwX<.u 7 0.m.6.E.L q.z.&.r -.i.i.L Y.Y.i p.B.",
"u z., 0 9. ., $.g.{ C * 0XjX*XO g  X@X|.O [.}.a b qXaX3Xl +XyX0XT b rXW A uXaXuX) J ~ _.=.z.E.m.0 x.7  .6.#.> -....., L r.w 0.[ ",
"=...7 5 B.q ] P.E W Y.% b +X%X;Xc n |.d X $ j ! 4XpX1XrXZ n $X8XsXjXvX9XE >XrXaX9X% T &X) D.L.q y 7.w 0 B.0 O.r...[ q 6.w 0 %.[ ",
"b...[ w.V.9 N.T.yX) P jX8X$ F aXH . $ uXvXvXeXb $X-X8X0X_ +XXX8XhXZXNXsXT U rXqX9X* 3X8X~ Z Z I x.I./ Y Q { %.-.$.{ j.j.{ 5 %.h.",
"m.} , n.w.[ P ) dXeX4XnXdX3X5X8X;Xj 7XVXAXVXdX4X1X>X5XJ @ N XX8XrXjXZXnXT F uXuX8X% ) 9X0X3X3X! & 7XN.^.^.I  .s.L.t s.a. .O.+.m.",
"t.0 r.$.= s.I.P 3X_ c 0XrXqX:Xv R OX;XrXdXsXrXqX*Xh o a n a m >X8XaXjXhXR {.:X8X+X& * S ) 9XrX9X#X>XlXt.O.6XP O.&.2 &.3 %.i.:.i.",
" .%.g.8.$.h.A.^ k o +X0X0X<Xv T dX0Xk _ rX0X3XT $ O   @ + n # {.OX>X! * & h N N b eXR.V.S G ) 7XeXqXsXvXfXV Q ..:.@.F.%.%.O.#.&.",
" .A.a.%.a.%., 9 h.Q ( qX1X%XK S aX3X% H ) W $ f }.|.f 3X3Xm a z M m H 9X0XH % H hXh.5 $.y.n.& S aXuXeXaX9Xb I.3 i.%.f.0 i.j.9. .",
"0 %.{ 0 8.%.0 i.6 &.~ K U R _ H ! % k o # s |..X.X@Xa 6XAXS V T Y J 9XrXrXS 3XNXx.h.7.O.+.&.Y.P 3XrXrX) &X{.Z 8.O.O...1 &.x.h.#.",
"$.0 5 $.$.y.x.x.1 -.H.W X j J %   A ).v }.@X.X.X.X.XM T bXH 9XVXVXdXqXqXrX) ~ vXwX&.n.s.2 #.&.I b <XE W h h P.k.1 i.h.O.#.{ g. .",
"H.$.w.h.&.w.d.i +.k.h.&.~ f f f f pXF M @X.X.X.X.X.X.Xa A ! vXSXVXrXqXrXqXaXZ A _ kX&.A.%.O.+.N.h .Xa Q.N.N.-.+.{ f.k.i.i.#.9.3 ",
"s.O.&.g.#.&.y.y r.s.0 6 ^.a  X@X@XR B }..X.X.X.X.XN a b B >XVXSXvXrXeX_ Z Z H @ Z ~ wXz.j.O.-.M.P a I g.7.$.9.&.:.i.} O.g.6.g.< ",
" .{  .#.{ {  . .$.t.O.2 a.~ x  X.X# M @X.X.X.X.XN U sXvXbXsX~ sXaX3Xk d n n c o ( ) / `.j.X.s.i.3 l.%.3 { {  .{ :.s.{ 3 O.1 9.%.",
";.M.$.s.&.O.D.;...1 8.g.0 N.s  Xm h $X+X,XoX@X[.b nXwX3 SXjX) A _ c n N @X,X;XV c ;X( W 6.w.i 7 X.C.] z.r.` (.>.9 { 0.%.O.t O.@.",
"d.@.y #.%.&.h.>.g. .9.x.g.y.T.x a F -X-X-X-XXXM W kX:. .AXjX9X* ! $  X@X+X8XuX8X& ( 4XZ wXS.{  .b.;...L #.%.;.@.a. .8.x.8.&.f.h.",
"F.r.h.0 y g.t +.9.y 0 g.x.#.w.T.X B -X-X:X$XN b l.h.&.&.SXjXqX_ @ #  X X,X0XaXaX+X& 4X) K E.[ H.D.' n.0  .B.3 ;.g.1 y x.g.{ ..&.",
"&.O.W.#.#.W.O.k.d.+.- y a. .: 0.Y F ,X-X,X,XV D q a...kXAXjXeX5X@ [..X X,X0XqXyXOX# ).3XA q.: t.-.[ _.2.{ _.` t.h.O.2 #.i.0 ,  .",
" .O.~.+.y.'.{ 9.H.J.O.1 9.7. .a.! v -X-X-X,XR D w 6.1 kXNXdXuX5X$ }..X.X.X,X>X+X|.$ )._ Z C.M. .t 5.Q.&.z._...#.H.Q.O.1 g.8.9 j.",
"7.q.x.O.h.W.0 > k.F.&.0 j.g.#.7.).T #X-X,X-XV Z g.&.0 tXhXqXqX*X+ |..X.X.X.X.X.XM s :X! _ _.'.i.0 a.w.$.G.Q.8.< j.W.%.1 A.j.< a.",
" .7.4 O.B.s.6.a.w 7.#.%.x.&.0 y m.K V -X-X,XR % T.B.Q.hXeXuX:XB g |..X.X.X.X.X X# N }.j kX>.h.$...-.w $.B.i.$...#.8. .%.A.i.2 } ",
"8.j.1 >.h.= %.!.z.8.w %.s.&.+.n.2 Y.v #X,X,XN X l ) eXaX>X,XoXO }..X.X.X.X.X Xn f [.m _ rX:...u 4.w.[ -.f., u !.c.q  .g.&.O.&.;.",
";.~.D.r $.H.0 #.~.5 B.0 w a.#.h.%.3 S # $X|.a O [.B =X=XoX@Xz x .X.X.X.X.X@Xn f {.x ;XNX< h.~.} ;.L.F.e r.H.0 #.~.i G.6., z.y h.",
"t @.H.&.y x.R.7.h.y W.g.z.B.$.#.O.i.I.% n a X z .X@X@Xn # # g |..X.X.X.XM # f {.f @ lX^.y.K.h.{ t -.K.:.0 x.R.#.=.y H.z.g.E.9.$.",
"{ 6.s.&.G.x.H.$.t b.Q.$.O.O.O.-.F.{ - ).l x N  X.X.Xz .   a |.@X|..XN a O # }.XXE ~ J ~ kXY.- j. .7.g.%.H.x.R.O.=.M.H.$.0 +.4 O.",
"8.#. .%.~.$.g.y m.L.B.6 0 O.-.b.A.0 P.S ) >XyX:XXXn o     O [.}.$ $ & ) ) #X%X8XuX9X) ~ S R yXwX9.6. .#.Q.O.g.y m.L.d.y O.y -.M.",
"2.1 a.j.7.= H.0 M.D.O.7.h.s.-.;.N.#XsXqXaXdX8X1XE D ).* . o % j fX5X* qXrX&X:XrX0XF &X8XqXbXuXR 7X2.i.j.&.= R.y M.n.y &.k.&.@.f.",
"8.x.W.+.9.9.H.0 6 O.0 j.g.&.+.I.^ mXSXAXCXcX,X,X&X;XyXZ _ l.U.U.= wXA 3X4XA W rXrXnXcX,XnXZXNXfX&X0XH.#.9.9.R.O.+.$.O.j.g.5 O.j.",
"h.K.F.1 k.H.9.6.&.{ 6.A. .w N.P rXnXVXVXmX&XpXVXaXs N v ).O.s.O.9.~.wXZ Z * K _ qXNXnXc qXdXqX3XJ eXM.1 h.H.9.7.y 4 i.z.8. .s.~.",
">.X.*.O.r &.5 9.A.{ , 0.< %.y.P 5XaXsX3X! % rXVX9Xo A 6Xm.b.b.r `.B.= Y.wXH.T.A W ) W o W ( W A 7Xn.;.{ 0 &.5 %.G.{  . . .%.%.%.",
";.+.X.M.+.t +.C.<.| 2.*.=.E.!.e.P W W K H H ! ~ T 5XU.0.s.&.< 7 $.0 < ~.A.> z.c._ H H H H H 4X,.>.X.X.M.+.u =.L.m.2 %.t.=.S.!.0 ",
"-.d.h.k.s.d.$.$.%.@.F.A.#.s.F.0.I.W ! U.L.wX~ K 5XB.[ , y d...7 B.s.| #.0 y.W.< y y.X.-.6.w $.r %.s.k.k.;.;.=.=.} &.F.A.O.s.H.i.",
"+.d.k. .&.&.$.r.7 e o.3.< r o.3.p._.W.] u 9.| V.K.s.q 6.k.&.} c.L.9.%.9.$.y.g.q k.&.@.k.0.y w.+.} j.j.O.9.$.&.w.` u =..., u =...",
"0 #.#.2 a.q %.H.u.*.X.4.2.t O.c., e.Q.r.$.z.5._.D.0 9 A.F.4 0 E.v.y z.A.7.y 5 0.K.&.:.x.7.7.B.h.2 %.6.3 y.0 O.B.i.@.+.{ { y &.z.",
"5 O.#. .S.9.%.g.h.p.p.b.d. .5.Q.m., ..+.w.Q.g...e { %.w { +.+.4.{ &.G.#.2 k.7...>.X...:.y =.s.#.6 #.8. .G.9.#.g.k.i.i.M.n. .%.~.",
"y.g...2 z.h.7.5 o.| 7 ,.<.3.1.,.'...y.=. .9.p , *.h.6., O.f.-.9 +.&.i.{ y.Q.y., ;.{ 4.q 2 t.r.| g.g.#.1 j.h.6.5 +.' ` t.v.] < h.",
"B.h.0 5 { 9.&.+.@.' { O.&.&.#.6 { y v._.A.[ 3 -.D.d. .9.M.>.&.z.d.6 ' s.H.G. .9 <.&.3.] +.m.s.2.x.h.w 0 O.9.$.#.+.{ O.O.&.8.%.5 ",
"=.{ #.R.#.0 y B.4.<.b.0.7 =.d.0.9.=.1 p._.7.] i.;.' 2 g.b.r 4 z.M.&.2 i.h.2 0 A.,.} 3.1.b.C.r 7 9.y +.F.$.0 O.F.[ b.V..., i t.u."
};
