/* XPM */
static char *_eeb1981a428409c96746414706fd7cb3QKdv8kV2GocQs7r[] = {
/* columns rows colors chars-per-pixel */
"50 64 199 2 ",
"   c #000001",
".  c #090707",
"X  c #0B0A06",
"o  c #070708",
"O  c #0B090A",
"+  c #130E07",
"@  c #130E0E",
"#  c #0E1F0F",
"$  c #191107",
"%  c #17100F",
"&  c #1D1409",
"*  c #130F10",
"=  c #180F10",
"-  c #161010",
";  c #1B1212",
":  c #101F11",
">  c #25180A",
",  c #321F0A",
"<  c #221615",
"1  c #241817",
"2  c #251919",
"3  c #2C1C1B",
"4  c #321E1D",
"5  c #12200F",
"6  c #0F2011",
"7  c #132212",
"8  c #152914",
"9  c #1B2A1A",
"0  c #193518",
"q  c #1D341C",
"w  c #3D250C",
"e  c #2D201F",
"r  c #35211F",
"t  c #38211F",
"y  c #22341B",
"u  c #223C1D",
"i  c #3C3013",
"p  c #303E18",
"a  c #342322",
"s  c #3B2322",
"d  c #372A22",
"f  c #3C2924",
"g  c #3C2928",
"h  c #263A22",
"j  c #293B23",
"k  c #41270E",
"l  c #44290E",
"z  c #4D2D0E",
"x  c #522F0F",
"c  c #53310E",
"v  c #5C350F",
"b  c #493515",
"n  c #533210",
"m  c #5C3611",
"M  c #60370F",
"N  c #653A10",
"B  c #693E12",
"V  c #412624",
"C  c #462926",
"Z  c #482927",
"A  c #442D2B",
"S  c #4D2D2A",
"D  c #502F2C",
"F  c #4E352D",
"G  c #55322E",
"H  c #4B3231",
"J  c #543532",
"K  c #5B3532",
"L  c #573B35",
"P  c #5E3835",
"I  c #5B3D3B",
"U  c #603733",
"Y  c #633935",
"T  c #653D39",
"R  c #683F3B",
"E  c #20441F",
"W  c #2A4626",
"Q  c #324824",
"!  c #265527",
"~  c #2B5626",
"^  c #2C5629",
"/  c #2B5A2B",
"(  c #365626",
")  c #315A25",
"_  c #30552B",
"`  c #365E31",
"'  c #3A632F",
"]  c #326829",
"[  c #2E702C",
"{  c #3E742E",
"}  c #3B7C2E",
"|  c #346032",
" . c #3C6335",
".. c #396438",
"X. c #357235",
"o. c #3D7735",
"O. c #357D35",
"+. c #3B7C34",
"@. c #6A4314",
"#. c #7B4512",
"$. c #7B4A16",
"%. c #7E5019",
"&. c #5D4936",
"*. c #785D23",
"=. c #65413E",
"-. c #6A413D",
";. c #5E6D2A",
":. c #417A2D",
">. c #5B603D",
",. c #437D34",
"<. c #487F36",
"1. c #417639",
"2. c #437C3B",
"3. c #557934",
"4. c #756127",
"5. c #64712F",
"6. c #6B7635",
"7. c #644341",
"8. c #6D4541",
"9. c #704946",
"0. c #734D4A",
"q. c #814C16",
"w. c #8B4F15",
"e. c #8C5117",
"r. c #895118",
"t. c #915317",
"y. c #985717",
"u. c #995817",
"i. c #9F5B18",
"p. c #A85F17",
"a. c #A45E18",
"s. c #A96017",
"d. c #AD6218",
"f. c #B36519",
"g. c #B76819",
"h. c #BB6919",
"j. c #C16D1A",
"k. c #36812B",
"l. c #39812F",
"z. c #338335",
"x. c #3D8434",
"c. c #37873D",
"v. c #3C8439",
"b. c #3E8C3B",
"n. c #44822E",
"m. c #4B832A",
"M. c #448435",
"N. c #498535",
"B. c #458935",
"V. c #4B8A35",
"C. c #448539",
"Z. c #4B853B",
"A. c #448B3C",
"S. c #4B8B3C",
"D. c #538C35",
"F. c #51863D",
"G. c #5A803D",
"H. c #518B3D",
"J. c #4A913E",
"K. c #54913C",
"L. c #5A913A",
"P. c #698236",
"I. c #358741",
"U. c #3D8741",
"Y. c #3E8A42",
"T. c #3D904B",
"R. c #448741",
"E. c #4B8740",
"W. c #448D42",
"Q. c #4B8D42",
"!. c #528443",
"~. c #528D42",
"^. c #5A8D44",
"/. c #479044",
"(. c #4D9344",
"). c #4E944A",
"_. c #549344",
"`. c #5B9443",
"'. c #5F9946",
"]. c #52954A",
"[. c #5B954B",
"{. c #559A4D",
"}. c #5D9B4B",
"|. c #5E9A4F",
" X c #4B9654",
".X c #569753",
"XX c #549C54",
"oX c #5C9B52",
"OX c #648D48",
"+X c #639646",
"@X c #639C54",
"#X c #6C9E57",
"$X c #629E58",
"%X c #709E5A",
"&X c #5CA053",
"*X c #63A153",
"=X c #68A253",
"-X c #64A159",
";X c #6CA963",
/* pixels */
"~.}.S.].b.A.).S.~.C.+.(.|.E.h o o o . O . O o o ^ v.O.v.B._.].M.} B.B.b.z.v.XX;X(.B.}.*XD.F.@XQ.!.@X",
"S.S.S.oX).)..XQ.Q.S.S.C.>.&.L 3 ; S S S D S = 4 a : E } } B._.J.S.`.J.b.z.Y.$XoXB.x.(.@X^.~.oX$X~.!.",
"B.D.+X&XS.C.N.N.H.~.q 8 F 8.-.r < Y Y T 9.Y ; s G Z d 8 u C.C.C.W.H.B.S.x.N.`.Z.(.A.A.(.Q.}.@X$XS.B.",
"N.'.=X].x.,.C.2.h h g H 3 L -.4 < T 8.T 0.Y ; g Y Z 3 s f y 0 [ v.V.B.J.J.S.H.^.*X).v.v.S.oXQ.~.N.^.",
"S.`.`.B.S._.1.q O A P -.Z a e % O 3 a 3 a 3 O ; 3 4 Z T =.r O 0 +._.V.J.J.H.H.@X{.A.v././.S.+.[.E.`.",
"S.V.V.C.].o.j 3 r A P P V %                       @ C R T r 3 f Q C.x.k.B.V.D.H.;.;.5.6.5.3.(.oX~.F.",
"S.B.n.Q.2.j V R J 3 s s @                           @ s t 4 K -.g j [ b.} ( 5.5.%.t.y.y.r.4.OX XQ.S.",
"~._.x.X.h 3 J T Z s .                                   O V C K S a Q X.Q k q.e.w.d.h.h.u.q.*.3.G.[.",
"}.H.X.j C V 3 a o                                           . t - d f & k q.y.f.r.f.g.h.u.r.e.r.*.P.",
"V.{ y A K D 4 o                                               o   % n r.q.t.f.f.r.d.h.h.u.u.h.p.q.%.",
"M.8 C 3 @ O o                                                     z u.g.a.t.g.f.t.d.h.h.u.u.h.p.q.q.",
"~.7 Z K J 3                                                     o n a.h.p.t.g.f.r.f.h.h.u.u.h.d.q.q.",
"Z.7 C 8.-.s                                                       n s.g.s.r.g.f.r.d.h.h.u.u.h.d.q.q.",
":.7 @ S R 4                                                       n s.h.s.t.g.f.r.f.h.h.u.u.h.p.q.q.",
"M.5 3 3 1 @                                                     o n s.g.a.t.g.f.r.p.h.h.u.u.h.f.q.q.",
"W.7 Z Z a ;                                                       n i.g.s.r.g.f.r.f.h.h.u.u.h.p.q.q.",
",.: Z 8.R s                                                       c a.h.a.t.h.f.e.d.h.h.u.u.h.s.q.q.",
",.7 3 A A <                                                       c a.h.a.e.h.f.e.f.h.h.u.u.h.d.q.q.",
"+.# ; < ; @                                                     o w t.j.a.t.h.f.e.d.h.h.u.u.h.s.q.q.",
"+.5 H -.Y a                                                     o   c p.p.t.h.f.r.f.h.h.u.u.h.d.q.q.",
"O.7 Z 8.-.a                                                       o   z y.e.h.f.r.f.h.h.u.u.h.s.q.q.",
"O.7 Z P K 4                                                     o   X % l t.h.d.e.d.h.h.u.u.h.d.q.q.",
"O.6 V 4 - O                                                     o   v i.t.e.h.f.e.d.h.h.u.u.h.s.q.q.",
"+.6 * A J 3                                                       w y.h.a.t.h.f.e.d.h.h.u.u.h.d.q.q.",
"E.7 4 P 8.V                                                       n s.g.s.t.g.f.e.d.h.h.u.u.h.d.q.q.",
"F.7 Z Y R g                                                     o n s.h.i.t.g.f.r.d.h.h.u.u.h.p.q.$.",
"!.7 < 3 S a                                                       n i.h.s.t.g.f.r.f.h.h.u.u.h.d.q.q.",
"!.7 ; 4 g ;                                                     o n i.h.s.t.g.f.w.f.h.h.u.u.h.d.q.q.",
"Z.7 Z 8.Z @                                                     o n s.h.a.t.g.d.r.d.h.h.u.u.h.s.q.q.",
"<.7 Z Y Y r                                                       n a.g.a.t.h.f.w.f.h.h.u.u.h.d.q.q.",
"!.7 s D K r                                                     o z a.h.a.t.g.f.e.d.h.h.u.u.h.d.q.q.",
"^.7 + @ t 4                                                     o n a.h.a.t.h.f.r.f.h.h.u.u.h.p.q.q.",
",.: V G 4 o                                                       n a.g.s.t.g.f.e.d.h.d.t.y.h.p.q.q.",
",.7 Z Y J 3 o                                                     n s.h.s.t.g.f.e.f.h.M $ v h.d.q.q.",
"+.7 C U Y a                                                     o n a.h.a.t.g.f.e.d.h.u.w + N d.q.q.",
"C.5 = < < @                                                       n i.g.a.t.g.f.e.d.h.h.c , t.s.q.q.",
"C.: 1 4 s ;                                                     o n a.h.a.t.g.f.e.d.h.#.> c j.d.q.q.",
"2.7 Z R Y r                                                       n a.h.a.t.g.f.e.d.#.v l z q.s.q.q.",
",.7 D R Y s                                                       n a.h.a.t.g.f.e.p., #.a.k k p.q.q.",
"+.: L K V 2                                                     o n a.h.a.t.h.f.e.p.M B B l B s.q.q.",
"N.7 A r = O                                                       w t.h.a.t.h.f.r.d.h.v > M h.s.q.q.",
"F.7 O C Y 4                                                     o o m d.a.t.h.f.e.f.h.f.t.y.h.d.q.$.",
"N.7 C Y T a                                                       o o n u.t.h.f.e.d.h.h.u.u.h.d.q.q.",
"~.7 V K 8.A                                                     o   o + l e.h.f.e.d.h.h.u.i.h.p.q.q.",
"E.7 O = H g                                                       o n u.r.t.f.f.e.d.j.h.u.u.h.d.q.q.",
"+.7 4 Z a *                                                       w t.h.a.t.h.f.e.f.h.h.u.u.h.d.q.q.",
"R.7 Z Y S <                                                     o n a.h.a.t.h.f.e.d.h.h.u.u.h.p.q.q.",
".X9 Z 8.R a o                                                     n a.h.a.t.h.f.e.d.h.h.u.u.h.p.q.q.",
"E.9 < g f ;                                                       n a.h.a.t.h.f.e.d.h.h.u.u.g.d.q.q.",
"E.: = < < @           ; 2 2 2 2 2 a a e e 2 .   - 2 2 2 3 ; o     n a.h.a.e.g.f.e.f.h.h.u.u.h.s.q.q.",
"<.: Z Y Y s     o o ; J Y Y T T 8.0.9.9.0.=.3 ; 4 C D 8.9.K O = O n a.h.a.t.g.f.e.d.h.h.u.u.h.d.q.q.",
"<.: t K Y a . @ * ; V S S S L I I L G Y 9.0.8.Y s @ 3 H I J = H ; n a.h.a.t.h.f.e.f.h.h.u.u.h.d.q.q.",
",.: @ s J 3 < K K J ; - @ @ = = = @ < S J &.=.L D S 4 O 1 C * I 2 n a.h.a.t.h.f.e.d.h.h.u.u.h.s.q.q.",
",.: H a @ . 1 R 9.T 7.K K G G J J K Z ; @ - % % @ @ O < s + O A ; n a.h.a.t.h.f.e.d.h.h.u.u.h.s.q.$.",
"2.7 S K D 3 < K Y K Y P 7.T R R K K K S S S D D S S D s @ o o O o n i.h.a.t.h.f.e.d.h.h.u.u.h.d.q.q.",
"E.7 J R Y 4 . = % = - ; ; ; ; ; = = = = = = - - = = % @           x r.a.a.e.h.f.e.f.h.h.u.u.h.s.q.q.",
"^.7 - < ; @             o   o       o o   o     o   o     o     o % > m r.e.h.f.r.d.h.h.u.u.h.d.q.q.",
"V.] ) ' | ~ '  .` |  ./ !  . .` ^  .| ! ! ^ ' / / ..| ^ / _ ` ..! ! ) p z r.i.f.e.f.h.h.u.u.h.d.q.q.",
"S.v.m.D.Y.z.m.V.Y.).=XoXb.S.(.A.'.=X_.v.W._.S.A.XX$X_.W.Q.Q.Q.).W._._.{ Q w x t.e.d.h.h.u.u.h.s.q.q.",
"{.J.V.V.W.v.:.S. Xb.[.@XE.Q.).(.@X'.B.v.)._.n.C.XX].S.].{.R.C.C.W.}.K.J.2.q X k x p.j.h.u.u.h.d.q.q.",
"_._./.(.`.K.c.).=X[.v.S.S.~.@X~.A.n.B.v.v.B.n.C.W.M.S.{.S.M.~.Z.B.K.V.b.S.{ q q y @.#.u.t.i.h.s.q.q.",
"M.m.c.z.D.K.U.U.'.@XA.~.~.S.Q.N.x.V.K.v.k.V.K.S.v.N.V.(.C.].-X).k.V.C.c.z.+.F._.v.W 9 b M q.d.a.q.q.",
"V.B.C.x.C.S.S.C.C.A.C.^.#X{.v.+.J.+XK.v.S.`.H.V.).K.M.l.J.@XoXA.C.D.]. XO.V.+XH.Y.].~.W 7 i B B B B ",
"].J.L.L.Y.O.V.~.W.C.<.M.{.%XS.z.J.K.n.x.(.`.m.M.].[.V.k.Q.].N.M._.L.S.T.I.`.+XN.O.W.Z.<.~.( X X X X "
};
