/* XPM */
static char *_cd77c54d01247b1ef05ce458cc12142dg4EsUXcYgwNwCTp[] = {
/* columns rows colors chars-per-pixel */
"64 64 242 2 ",
"   c #0B0B0B",
".  c #0A0806",
"X  c #0E120B",
"o  c #0C1A09",
"O  c #061604",
"+  c #12140F",
"@  c #111E0D",
"#  c #0E1714",
"$  c #131511",
"%  c #151A12",
"&  c #1C1D1C",
"*  c #181C18",
"=  c #100D0F",
"-  c #201B1F",
";  c #162C0E",
":  c #1B2E13",
">  c #1B221D",
",  c #172516",
"<  c #13351A",
"1  c #1D351B",
"2  c #1C3A1A",
"3  c #193515",
"4  c #112F10",
"5  c #21231D",
"6  c #202B1A",
"7  c #233C1B",
"8  c #25381C",
"9  c #191E21",
"0  c #231E24",
"q  c #25182A",
"w  c #1D2321",
"e  c #1E2820",
"r  c #242223",
"t  c #292426",
"y  c #262429",
"u  c #28262A",
"i  c #293825",
"p  c #1E4319",
"a  c #29461E",
"s  c #2F6E1F",
"d  c #274224",
"f  c #364E33",
"g  c #2C6A27",
"h  c #336D24",
"j  c #37692C",
"k  c #2E7326",
"l  c #2D732A",
"z  c #2D7B2C",
"x  c #257728",
"c  c #337326",
"v  c #397425",
"b  c #34752C",
"n  c #3A762C",
"m  c #347A2D",
"M  c #3C7B2D",
"N  c #3A7D23",
"B  c #3D6A36",
"V  c #2D7B34",
"C  c #2E7B3A",
"Z  c #2A7534",
"A  c #347533",
"S  c #3C7533",
"D  c #357B32",
"F  c #3C7C33",
"G  c #347D39",
"H  c #3D7D3B",
"J  c #3C7639",
"K  c #437621",
"L  c #457926",
"P  c #437C2D",
"I  c #4B7E2C",
"U  c #487929",
"Y  c #446D3A",
"T  c #457631",
"R  c #427D34",
"E  c #4A7C34",
"W  c #437E3A",
"Q  c #4A7E3B",
"!  c #44733B",
"~  c #517B37",
"^  c #547E3D",
"/  c #435235",
"(  c #317F42",
")  c #3B7E42",
"_  c #3E6B40",
"`  c #575B5B",
"'  c #5C5C5C",
"]  c #575655",
"[  c #49534B",
"{  c #645E5E",
"}  c #497A41",
"|  c #497341",
" . c #576F50",
".. c #5B5F62",
"X. c #645B62",
"o. c #696967",
"O. c #69676A",
"+. c #6C6B6B",
"@. c #646565",
"#. c #6A6D70",
"$. c #777677",
"%. c #7C7B7A",
"&. c #76797C",
"*. c #75756B",
"=. c #2A802D",
"-. c #35822E",
";. c #2C8735",
":. c #348334",
">. c #3C8235",
",. c #34823D",
"<. c #3D833B",
"1. c #358A3B",
"2. c #3C8A3D",
"3. c #41812D",
"4. c #4B812C",
"5. c #4D8024",
"6. c #53872B",
"7. c #438235",
"8. c #4B8334",
"9. c #4C8835",
"0. c #44843B",
"q. c #4A853B",
"w. c #44893C",
"e. c #4B8A3C",
"r. c #548533",
"t. c #538A35",
"y. c #5A8C34",
"u. c #52853C",
"i. c #528B3C",
"p. c #5C8C3B",
"a. c #588739",
"s. c #46903E",
"d. c #5C913C",
"f. c #55923B",
"g. c #618E37",
"h. c #62953D",
"j. c #358443",
"k. c #3C8542",
"l. c #3D8B4A",
"z. c #388846",
"x. c #3F9043",
"c. c #448542",
"v. c #4A8441",
"b. c #458B42",
"n. c #4C8C43",
"m. c #448D4B",
"M. c #4C8C4A",
"N. c #4B844C",
"B. c #538542",
"V. c #538C43",
"C. c #5A8C44",
"Z. c #538D49",
"A. c #5C8D49",
"S. c #578245",
"D. c #449144",
"F. c #4C9244",
"G. c #4D924B",
"H. c #4B984C",
"J. c #549245",
"K. c #5C9444",
"L. c #5D9845",
"P. c #54944B",
"I. c #5B954B",
"U. c #55994D",
"Y. c #5C9A4C",
"T. c #559942",
"R. c #598951",
"E. c #4B9753",
"W. c #5B9652",
"Q. c #559B52",
"!. c #5C9C53",
"~. c #569A57",
"^. c #498B53",
"/. c #668C49",
"(. c #639344",
"). c #649A45",
"_. c #63954B",
"`. c #629B4B",
"'. c #6A9A4C",
"]. c #6A9946",
"[. c #639C53",
"{. c #629C59",
"}. c #689855",
"|. c #6E9254",
" X c #5DA255",
".X c #59A458",
"XX c #4BA150",
"oX c #6BA14B",
"OX c #64A255",
"+X c #6BA454",
"@X c #64A45B",
"#X c #6BA55C",
"$X c #6BA95E",
"%X c #68A958",
"&X c #73AC5A",
"*X c #73A359",
"=X c #6F9B60",
"-X c #7A9564",
";X c #6CA562",
":X c #6CAB62",
">X c #63AA68",
",X c #7EA463",
"<X c #74AC63",
"1X c #72AE68",
"2X c #77AA66",
"3X c #72B165",
"4X c #7BB66C",
"5X c #78B467",
"6X c #67B172",
"7X c #7CBB75",
"8X c #7BB771",
"9X c #65B766",
"0X c #83A157",
"qX c #84A868",
"wX c #86B871",
"eX c #8AAE71",
"rX c #81C177",
"tX c #7F8382",
"yX c #97928E",
"uX c #969595",
"iX c #989796",
"pX c #8B908C",
"aX c #9DA39F",
"sX c #9F98A0",
"dX c #ADAEAD",
"fX c gray64",
"gX c #B2AEAD",
"hX c #ADB1AD",
"jX c #B2B1AE",
"kX c #B2B4A7",
"lX c #ADAEB1",
"zX c #B1AFB1",
"xX c #BAAEBA",
"cX c #AFB2B3",
"vX c #AFB6B5",
"bX c #B2B2B2",
"nX c #B9B4B4",
"mX c #B9BAB6",
"MX c #B5B6B8",
"NX c #BAB6BA",
"BX c #B6BABC",
"VX c #B6B9B6",
/* pixels */
"f.&X+XP C.{.R W 5XF !.w.D H.F W.7.D Z.%XM.F V. XF.0.0.F v.7.U.@X,.D s.e.J.U.F b 7.7.2.:.G !.8Xe.e.%X#XP C.;XQ v.1XW !.<.D !.0.Z.",
"-.9.+XB.R [.;Xc.e.3.@XU.U.$Xn.Z.e.F.0.n.F n.0.M.U.7.q.e.Y.q.8.P b.m F v 7.[.F.n.%XT.D.V n.1XI.F M 9.#XV.Q }.;Xv.e.W #XU.P.:XV.V.",
"<.w.P.e.@X[.@Xq.8.Y.$Xn.F q.R Q @XF g U.7.P.w.7.7.3.J.L.`.4.P 8..X<.w.e.7.0.0.n.t.3.s.z W _.n J.2.n.P.n.#X!.#XQ Q `.#Xn.R 7.S q.",
"b.b.0.0.3Xq.J.F (.&XY.R M 7.V._.!.b e.3X7.e.P.F M m n.J.P.F e.Y.~.>.e.@XI.b c <.9.3.U.F.e.C.B.4Xw.2.>.0.<X0.V.M _.*XI.7.R F i.`.",
"0.m P.G.w.c #XR `.`.R 0.P.Z.V.C.b F.7X!.F F U.F D.,.G G m.H b.b.F k n K.I.q.>.0.+X9.s.Y.V.C.OXU.<.m F.G.w.g #XR '.K.M e.Y.e.i.K.",
"n.!.%Xw.0.F.:Xv.r.9.7.G.P.R q.K.F P.[.F !.0.q.Z.2.2.x.C j.) m.0.b I.n.7.7.R M.P.U.m k 9.U E I.g i.!.@X0.w.F.:Xq.u.8.7.U.U.F 3.J.",
").qX`.c U.@XM.n.8.M n.Q.b.7.P.5X$XF m M.3Xn.0.U.M F.!.<.0.q.J.q.Z.8XY.q.V.7.<.n.F m w.7.E C.M.C _.2XOXm !.@XM.V.7.R M.U.b.<.P.3X",
"p.I i.7.F e.F 0.OXM 7.c.k.<.W e.rXn J.7XJ.F P.7.y.).).P i._.].K :X;Xv 7.wX[.F G >.2..X7.Z.<X0.,./.U r.7.>.b.G M.OX0.0.0.G x.w.9.",
"y.5.I `.9.9.e.OXh.G m.h.6.>X6XU B.<.A.u.;.XX,XA.e.<.k.<.J.V.G G R W n 1X@Xg F.b.N.%X6.-.) ^.!.p.V.8.v [.4.9.r.*Xy.G k.h.5.>X>XU ",
"i.d.K.L.V.J.e.7.0.9.OX!.R B.[.q.^ e.;.;.R.|.a 3 a d < < 7 7 2 < i a 3 7 1 1 d 2 i a 3 T m.) v.P 7.J._.L.e.i.u.q.w.i.`.@X<.P.!.M.",
"7.I.J.7.i.e.8.e.,.5.y.l.C I a.z.XX*X<X:.Y 8 @ = = ] ' ] ] ] ' ` ' ] ] ' ' ' ] ] ] ] ] | B H Q.n.e.T.!.M J.R n.V.C 5.6.l.Z U 5.z.",
"D <.0.D J.M 9.OXb.4.4.<.<.I q.~.z } qXJ 1 % r q { gXNXnXnXnXnXbXbXbXNXbXMXbXMXNXbXNXxX+./ B OX!.k <.F.b Z.F e. Xb.9.P 2.<.R e.~.",
"G <.0.<.@Xe.e.J.d.D.D.d.K.k.m.<X|.j f > * w w X.dXdXdXcXbXjXVXcXbXVXbXdXbXbXbXgXbXbXbXnX*.f Y f F v.>.0.!.R.<.F.L.D.G.K.L.k.m.5X",
"P.G.0.b J.U.e.n y.z.z.y.h.z.z.(.-X4 O w 0 9 ` jXbXzXbXMXbXlXdXbXMXzXbXbXMXVXdXzXhXcXbXvXbX%.u f | W.M >.n.@X<.m y.,.,.6.h.( ( p.",
"Y.J.>.M P e.0.w.9.>.:.7.8.c.H j > , w # 0 X.nXhXlXVXbXzXVXMXzXjXbXzXMXzXzXbXbXVXVXnXdXlXBXlXzX#.8 R.0.M M Z.e.<.q.>.0.R V.0.0.F ",
"t.9.q.OX7.F 7. Xx.d.oXm.C E a.) w & = $ ' bXgXbXvXbXjXbXjXcXjXgXbXbXdXbXbXhXVXhXbXgXnXgXzXnXzXpXi Y R U.e.b >.OX,.y.oXk.,.I ).^.",
"z.C G.J.v p.&Xi.Z b.<.N `. .6   & & & @.zXVXbXbXcXbXbXbXbXbXbXbXbXbXcXbXbXbXbXbXbXbXbXjXbXbXbXbXpXu i  .c f.&Xi.Z c.k.n I.L.T.P ",
"m.C 0.J.R P i.7.<.A 0.F T ; % r y + ' dXdXlXVXgXbXjXbXbXgXbXbXbXbXbXbXbXbXbXbXbXbXbXbXbXbXjXbXbXfXaXpXi v 7.i.9.m.A R M B.V.7.V.",
"A ~.@Xn.7.q.q.0.m M.:X0.j O & y . . $.bXbXMXbXbXbXbXbXbXbXbXbXbXzXbXbXjXzXbXbXbXzXbXbXbXzXbXbXbXbXMXiX> T q.q.0.b w.#Xe.n P.0.:X",
"b :XOX7.e.!.n.0.w.I.P.7.Y @ 5 y   @.aXzXVXbXdXbXbXzXbXbXbXbXcXbXbXbXbXbXbXbXbXhXbXbXbXcXbXbXbXcXMXdXyX> E @XM.<.e.J.P.7.0.5Xm.m.",
"0.J.M n Y.U.H H F.e.c 7.! o r r . %.MXbXzXzXbXbXjXbXbXbXbXcXbXbXjXbXbXbXbXzXbXbXcXjXbXbXgXbXbXbXzXBXiX& B.~.F V U.e.h 7.V.W.H Z ",
"F n.i.7.e.e.0.<.m P.3.3.Y o 5 r = $.VXbXzXVXbXbXcXbXbXbXjXbXbXzXbXbXbXcXbXbXbXbXbXbXbXbXbXbXbXbXcXMXiX> Q b.>.2.m f.7.7.R n.M.M.",
"D G.:X[.F q.Q.w.A G.e.c | @ & r   $.VXbXbXzXdXVXbXbXbXbXbXbXbXbXzXbXbXbXbXbXbXjXbXbXbXbXbXbXbXcXVXcXuX> h b.Y.w.:.b.n.c C.1X@Xv.",
"Q.m P.&XJ.e.U.7.j.k. X7.S.o y r   %.bXbXbXzXVXdXbXzXbXbXbXbXbXbXbXbXjXbXbXbXbXcXbXbXzXbXbXbXbXbXgXbXuX> ^ q.J.F k.:. XW I.I.R q.",
"qX Xm B.T D m ^  X0.F.A c.X w t   $.VXbXbXbXbXbXbXbXbXbXbXbXbXbXbXbXzXbXbXbXbXbXzXbXbXbXcXjXbXjXbXnXuX> g l D q.`.F.s.;.1.1.N `.",
"a.2.:.q.[.<.D.(.J.A >.} N.$ & r   &.bXbXbXbXbXbXbXzXbXbXcXbXbXjXbXbXbXbXbXbXjXcXbXbXbXbXbXbXbXbXbXbXuX& M.>.U.J.i.n b v.~.n.n i.",
"T D.D.N.;Xk.x._.q.W n.{.R.% > t   $.VXzXjXbXbXbXbXbXbXcXbXbXbXbXbXbXjXbXzXbXbXbXbXbXjXbXbXbXbXbXbXbXuXw ~.b.J.K.e.R ! {.2XB.q.I.",
"E .X1.Z.Z.j.x C.Z.v.W ;XZ.$ * t   $.VXbXbXbXzXbXbXbXbXjXbXzXbXjXbXcXbXbXbXbXbXbXbXbXbXcXbXbXbXzXMXbXiXw c.v.n C.F.Z.q.=X=XQ P.~.",
"E E.x W M.:.x a.U.H k M.W $ > r   $.MXbXzXbXbXbXbXbXbXbXbXbXbXbXbXbXcXbXbXbXbXjXzXbXbXbXbXbXbXbXcXbXuXw H 0.b B.D.2.b v.Z.W m.:.",
"u.2.V S {.:.:.C.>.G w.c.g X r 0   $.bXbXbXbXbXbXbXzXbXbXbXzXbXbXbXbXbXbXbXbXbXcXbXbXbXbXzXbXjXbXcXbXiX& P.H 7.i.:.D H c.) F w.:.",
"_.w.:.B.{.:.<.C.3.>.OXn.g X w y   $.VXbXbXbXbXbXbXbXjXbXbXbXbXbXbXjXbXjXzXbXbXbXbXbXbXbXbXbXbXbXcXVXuX> M.F w.i.w.7.U.U.>.F w.U.",
"'.0.k I.S.>.<.].&XM T.P.} # * y   $.bXbXbXbXbXbXbXbXcXbXbXjXcXbXbXbXbXbXbXbXbXbXjXbXbXcXbXbXbXbXbXnXuXw k.c.0.J.*XP Z.G.>.R 8.'.",
"A.W Z.q.g K.;XM 7.F J.F J + & r . $.bXbXlXbXjXbXbXbXbXbXbXbXbXbXzXbXbXbXzXbXbXbXbXzXbXhXbXbXbXbXbXzXuX& j i.OXE e.m w.m w.F.e.G.",
"F w.G.n.0.!.!.w.f.M.Y.W W # > t   $.VXbXbXbXbXbXbXzXbXbXbXzXbXbXbXbXbXbXbXbXbXcXbXbXbXbXbXbXbXzXVXbXiX> F U.!.q.f.e. Xw.w.0.0.0.",
"<. XG.w.F.w.b D J.0.e.F } % & y   $.bXbXbXbXbXbXcXbXbXbXcXbXbXjXbXbXbXbXbXbXjXbXbXbXbXbXbXbXbXbXdXbXuX> F F.>.z n.e.T.>.n.U.F.H ",
">.<.>.F b.0.>.G.R 0.8.A W $ * t   $.VXbXbXbXbXbXbXjXbXjXbXbXbXbXbXcXbXjXbXbXbXbXbXbXbXjXbXbXbXbXbXNXuX, A w.w.n.>.7.e.c e.Q.!.7.",
"n.S M W v.Z.I.[.h P.`.R J X 9 t   $.MXbXbXbXbXbXbXbXbXbXbXbXbXbXbXbXbXjXzXbXbXbXbXzXbXcXbXlXbXbXbXbXiX5 S q.L.I.m e.U.7.0.7.P.7.",
"#Xe.V._.q.n.I.Q 7.W.J.0.} $ w t   $.VXbXbXbXbXbXbXbXbXbXbXbXbXbXbXbXcXbXbXbXjXcXbXbXbXbXbXbXbXbXbXzXuXr R E K.Q >.T. Xe.J.0.n.D ",
"P.0.v.P.e.e.M.W V.Z.R R v.$ > r   $.bXbXcXbXbXbXbXjXzXbXlXbXjXbXbXbXbXbXbXbXbXbXbXbXjXbXbXbXjXbXnXMXuX5 S 0.V.e.s.f.9.<.J.w.G.D ",
">.>.0.<.>.<.<.>.e.P.R n S X w r   $.VXbXgXbXbXbXbXcXbXbXbXbXbXbXgXbXbXzXbXbXbXbXbXbXbXbXbXbXbXbXjXbXiX> c <.-.<.F.F.>.m 0.b M.0.",
"f.).7.P.e.M oXy.2.m b.P.S X * t   $.NXbXzXbXbXbXbXbXbXbXbXbXbXbXbXbXbXbXbXbXbXbXbXbXbXjXbXbXbXbXbXbXuXr v.z 0Xf.C <.b.b.7.P 7.9.",
"K.i.R 0.e.V.L.J.U.<.n.!.W $ & y   $.bXbXbXbXbXbXbXzXbXbXbXbXbXbXbXbXbXcXbXbXbXbXzXbXbXcXbXbXbXbXjXvXuX9 T w.p.t.G.<.n.U.n.w.J.T.",
"+Xe.I.W W P.R q.e.M R U.v.$ > y   $.VXbXbXbXbXbXbXbXbXhXgXbXbXbXbXjXbXbXcXjXbXzXbXbXbXbXbXlXbXjXjXVXuX9 b }.m i.P.b F !.P.7.w.w.",
"e.W :X0.0.<X7.Y.J.8.v R Q = 5 y   $.bXbXbXbXbXbXbXbXbXbXbXbXbXcXbXbXbXbXbXbXbXbXbXbXbXbXbXbXbXbXbXbXuX9 A qXz (.I.7.n 0.F.:.l >.",
"H 0.1Xe.Z.7XW n.<X#X7.c Q + > y   $.VXbXlXbXbXbXbXbXbXbXbXbXbXbXbXzXbXbXbXzXbXbXjXbXbXbXjXbXbXbXVXbXiX> v.eX1.q.&X$XR c H.b.D H.",
"v.Z.Q.7.I.:XA b I.@Xe.F n.+ * y   $.bXzXbXbXbXbXbXbXbXbXbXbXzXbXbXbXbXbXbXbXbXbXlXbXbXbXbXbXbXbXbXbXiX> Z.;Xb.m P.$Xw.m [.Q.D G.",
"<.b.n 7.Y.J.v.G.F v.c.w.v.$ * t   $.VXbXbXbXbXbXbXzXjXcXbXbXbXbXbXbXbXjXbXbXjXbXbXbXbXbXbXbXbXbXbXnXuX> C.m.0.x.<.n.0.w.Q.f.n 7.",
"n.Q.n f.L.s e.6X~.n.>.b.0.$ , t   $.bXbXbXbXbXjXbXbXbXbXbXbXbXbXbXcXbXbXbXcXbXbXbXbXbXbXlXbXbXbXbXmXpX5 ^ x E 9X~.<.<.G.n.7.9.K.",
"K.&X+XU q.#XS 0.4XF ~.>.B O & 0 . %.bXzXbXbXjXbXbXbXbXlXzXbXbXbXlXVXbXcXbXVXbXbXbXzXnXgXjXbXgXbXkXjXuX> 0. XR } <X0.{.c.b P.<.U.",
"P 9.$Xe.R !.#Xq.K.R :XU.N., 5 t # $.bXcXcXVXbXcXVXgXjXbXnXzXbXbXjXjXjXjXbXhXgXbXbXlXdXVXMXcXbXcXBXvXsX& j [.#Xq.a.R #XU.P.:Xe.n.",
">.w.J.0.@X!.;Xq.T (.$Xe.Y O & 0 . %.NXzXbXgXdXbXbXcXbXMXcXcXbXbXbXVXcXbXbXbXMXzXVXzXgXbXbXcXbXbXcXvXuXw W.!.#XW u.`.#Xn.R 7.M E ",
"b.b.F n.1Xq.P.R `.2X_.T Y O 0 y . %.bXgXjXVXbXjXvXvXMXbXcXbXbXbXlXbXbXVXcXlXbXbXbXjXjXgXgXVXbXbXhXmXyX> }.R I.W }.*XK.R R R e.`.",
"<.D G.W.b.k @XF ).[.R e.R.o 0 0   $.MXMXbXMXVXbXMXbXVXjXVXnXnXbXBXbXVXbXVXVXgXMXbXMXMXVXnXnXbXMXNXbXuX> T c #XF `.(.F e.U.e.e.L.",
"e.Q.:Xe.n.n.:X7.3.7.M U.} O + % . [ O.O.+.o.@.+.O.o.o.o.o.@.+.o.O.+.+.@.O.+.O.+.O.+.@.+.+.@.#.+.#.+.` % ! P.:X7.E 8.7.P.J.M 7.U.",
"`.5X[.v I.#Xn.c.w.7.w.Q.J 2 1 a i : ; 8 i 1 1 1 ; : i 3 3 : 8 : 1 i 6 1 i ; < 1 , 3 2 4 : 8 1 4 8 d 7 : V.@XV.0.R F n.U.b.>.T.4X",
"p.4.t.P n B.F e. Xm V D.z N.Q i.7XA M.7XG.<.Q.G i.L.`.3.d.).`.U 8X}.v K.5XP.7.D H z..Xb.N.;Xx.G (.U p.} >.q.S v.@X<.<.<.<.b.0.0.",
"d.8.P `.8.8.8.*Xh.:.<.y.r.>X6Xv 0.2.q.u.;.H.qXC.8.e.<.c.J.e.V C q.F D 8XW.g I.k.n.+Xt.P k.^.{.r.f.P P `.8.I r.+X_.z w._.u..X9XE ",
"u.K.U.Y.J.V.u.8.w.e.OX X0.I.OXn.S.n.;.:._.qXP.l d.P.<.k 7.J.0.C }.P.F w.H Z.;Xz 0.i.4.e.v.H v.K e.L.T.Y.p.V.a.i.w.e.OX X>.Z.$Xn.",
"q.I.I.>.e.w.q.V.V L 6.z.V K 6.j.H.,X$X:.T n.:./.&XF.G b.I.e.w.~.;Xn.w.F.v.Z.P.G `.9.9.Y.N.W Z.9.0.U.I.7.n.e.q.B.=.I a.1.x T B.2.",
"F v.b.m F.F e.#XD.9.6.k.z.P 8.~.z C.2Xn.q.Q.D.,XOXR G  XOXv M >X_.F !.~.v.W F D.3Xe.F.~.n.v.[.I.D b.b.b P.S W [.s.i.E w.>.R B.U.",
"n W c.<..XG.0.J.L.H.F.L.K.<.m.5X|.z x.7.Z.qXA.1.K 8.<.>.7.4.F k.R e.%X<.n I.c.k.h.>.w.F.R u.P.<.D b.w.F @XM.W P.Y.F.F._._.<.D.1X",
"Z.P.7.D U.~.n.A 6.C ,.y.h.j.G p.wX2.B.S.:.n.E z r.U.b.b 9.K.V.,.8.w.F.>.Z.<XF.l y.7.1.V n (.B.<.P.P.0.D U.Q.v.F a.=.-.C._.:.D A.",
"[.P.H F F n.v.q.9.7.>.7.e.n.c.R <.F /.qX X;.F V.+XJ.<.n.`.K.e.P.K.P m T.:X}.<.:.h.F.z.V q.].e.b.!.P.W F 7.e.q.w.7.7.7.7.e.v.<.F ",
"e.7.0.@Xv.F W [.b.h.).l.C r.d.m.n.~ c H.qXu.=.F.d.M D P.L.L b Q.`.e.m F.I.P F ~.y.w.z.j.'.'.n V i.7.q.@Xq.F 7.OX:.`.}.2.z q.C.x."
};
