/* XPM */
static char *wall1682365364[] = {
/* columns rows colors chars-per-pixel */
"64 64 88 1 ",
"  c #003553",
". c #013857",
"X c #02365B",
"o c #08355F",
"O c #033B5D",
"+ c #0A3C5D",
"@ c #053763",
"# c #0C3763",
"$ c #043D62",
"% c #0B3C65",
"& c #033C69",
"* c #0D3E6A",
"= c #123665",
"- c #113C66",
"; c #133E6A",
": c #183C6C",
"> c #153F70",
", c #193D71",
"< c #03435F",
"1 c #0B415E",
"2 c #024464",
"3 c #0B4365",
"4 c #024965",
"5 c #084967",
"6 c #04456A",
"7 c #0C436B",
"8 c #034B6D",
"9 c #0B4B6D",
"0 c #104165",
"q c #12426C",
"w c #19426E",
"e c #134B6E",
"r c #1A4C6F",
"t c #01516F",
"y c #0D506D",
"u c #045D6F",
"i c #13516E",
"p c #0D4470",
"a c #034C72",
"s c #0D4D72",
"d c #074B78",
"f c #124471",
"g c #184370",
"h c #144D72",
"j c #194D74",
"k c #134E7A",
"l c #184B7A",
"z c #045475",
"x c #0B5374",
"c c #065B76",
"v c #095C76",
"b c #045479",
"n c #0B547A",
"m c #065D7A",
"M c #0A5D7B",
"N c #135174",
"B c #195176",
"V c #125C77",
"C c #12517A",
"Z c #1B5378",
"A c #115C7B",
"S c #046077",
"D c #0A6077",
"F c #05617C",
"G c #0A617C",
"H c #035F82",
"J c #0B5D82",
"K c #115B82",
"L c #046383",
"P c #0B6284",
"I c #056984",
"U c #04658A",
"Y c #08658E",
"T c #036B8D",
"R c #096B8C",
"E c #106385",
"W c #106488",
"Q c #02708C",
"! c #08708D",
"~ c #056791",
"^ c #086591",
"/ c #036C92",
"( c #096B92",
") c #0C6F99",
"_ c #047195",
"` c #0A7295",
"' c #037399",
"] c #097198",
/* pixels */
"Nhehhehh9iie6Oz`_]_]'']''/)'_`bhNNshhhhhyBe97Oa``/_/]]]'_/)]/]nh",
"hheshhhhhjfhjfdFbmMMJmGFmMmPFG83eheeNeeehfehNfaLvMJMmGLmMmmLFF83",
"hjhNhjhshhhNiq9cmJMmMmMMmJJLJmxsNNiNhhehhhNNNe9cPmMMvMMGmJLPJM9x",
"7077777xss98964t48888426524823+%7qq777pxss98962t48888826544833++",
"xxhxNxzI/TTT/(//(TT/IPankCxCkCsCxxNNCdcITTTT//~//TT/ILakkkCCkksn",
"hrjhjq8GccDMDMMMMMmDmv7rhhNehhshrhhije8FcvMvMMMDMMmDmM5rhNhihhhk",
"hehehe9MMMmcMmMmcDMMmn$3eNeeeeereeeeee9MmmmmMMMvMDmMMx20eieerehe",
"778453O888a86422<66225 .O%336595978257$888a46222226622  +%337857",
"T/T_/T/T/(/Tz%:-;;;**7;w-**%IT////T/TT(T/(/Tb&:-;;;;**7,*7-&UT//",
"mMMGSMAMmMMG83w77;q;;f;q79:*MmKMvmGFmmGMMnMGa%q777*7fq7qq7;%MmJM",
"mJPPLJPmcvnMp-,>>ff;;:*;:7;3mmMGPmJPJLPmMMvMs#,;;f,;;;00:7:3cSAG",
"22<<22<48a4a66766676s6$3%%%O22222<<6<22286886679776p67%%%%%$2222",
"eh97ff8L(~/T/TTT/~//TJdfssh7s9ehee97j76L/(/TTTTT////TPakssh79shh",
"hNxhjhaTMMmGmmMMAMMDDz5rjhNhhNhkhNNhZfzQmMmmMMJMAnmDFx5ehhhhNhhh",
"NhNNie8FMMMMmmmMcDDcv82jhhhhhjhhxhhNhh9FDMMMMFMMDcDmxt%rehhhjhhj",
"9%0337$22246642526a8862pss8999999%055%%22662242226aaa4$sss98ss88",
"L2->*;>*3-*%=;*-*U/^//////~~TT//I$;***p*q-7%=*;;&U/^//((//(~/U//",
"S%;q0q;7q-3f,7;7OcDMDMVvMmMmMvvMS$:qq;wq;-7qgq77+uDMDMMvnmmmGMnm",
"z*:q7w;;ww00*7:73cDMMmMcMSLSDmzmz%,qq;;;:w%;;*;03cMMmmMmMmFFmmvm",
"823&77&*&o%#%%*%#2462662252O668886*66%7%2@%%%%%%o2626424252O6685",
"__]/''/'RO$3799he9eeeqee5hqaU_]/__/_'__]I$$3q9xeeesqeeqeeheaU__Q",
"/___'___T6ZNhshNNshhhjjhNNez`'/(/'__'___T6ZNh9xjhxhhhhhhNh5b_'`/",
"(____/]_U9heZZjehhhheNhslhhn`'__(_____/_P9h9hZjhjhjhhBeilhhn''/]",
"9zzbbznzb6x56O%7s9975737351.8z898zzxbbbbb9985%#6a9s37737351.sa9t",
"@bTT/TUTI(/TTHHUTTI&;3;*;----*--&dTTTTUTRT/TUHHUTTI&*%-;;;;-%---",
"09McAMMmmmMmWPPPKmM%w*-*7*7ppp*f:9GmMAMMmmMJPPPPJMM%:*;*7*ppf>;*",
"=8mmmmMMMmmMmMvzvMv$7;,>;*;;:;q;-9mmmmmMvDMvMMccMMc23*:>;;;;;;;;",
"688a848222222422452XX%*6pp7367766488848222222642252X$%*8p7&77p6p",
"R////!Paheeeqhhh9e7eeh9S///////_TTT((QPdhheheehh9eqeex9D////////",
"mMMMmDx5hhhBhhhNNheZ9N5mMmvvMmvMMMvMmPx7hhhhhshNxhhZeN5ccvmcmMDD",
"DmmJMM6%Zhhjhhhhhlhjeh7xmmmmmMMmMDGGMx83ZjhhhhNhhjhjqh7zFMmmcmmm",
"22462$.<5353235e998999$4888a8862322266.<533333799989ss24888a8a66",
"heqeeehs5ee92$8!T(TT//((/(//TRnhsheeeee95ee92OaQR/TTT/(~/~//TRdf",
"hhhshjhNNhehhqsLcMmMmGLmvMGGFG40shhshhhhZhqhjesFmmMmPGGFMMGPFG95",
"hNNNNhhhehhNNe9mFLmmmMMMmJFPFJt9hZhNshhhsheNNe9cmFDmDmMMmmPLDDt9",
"70q7q07xsh9a5748888t8826246523++7007qqpssssa96288a888864642563++",
"xhxNNsbI/TTT/(^((/T(TJdkkCnkCChnxhsNNszITTU/((//(///TJalCCkknCsC",
"hhjhhhtGcvDDmMMMAnmFDv9hhhhhjhhsNhhjhh8PcvDDmMMmMMmGmM5rrehhhh9h",
"efhehe8mvmmmmDDMMmmPvx<3eeeeieeeeehhhe9MmmmmMmmMMmJJmx2-eNehhhjh",
"799473O4aaa86622222222 +O$336779575655O88a886622222322 OO3235795",
"////T(/T//TRz%;-;;-;>;;,;7-&U///((///T///(TTb%;-:;*;*;*:-7;&I///",
"mMGPSmMMvMMMa%,p77f*7p*;07-*MDMMMmmLDmMMvnMG8%:p370*7q7q00;%MmnM",
"mMPPLLJJcvvv8-,*:>>;;7*;,q:7cmMcFmPPLFJJvvvvs*,;f,:;;q0qf>;*vcMM",
"4<3<<<<4aa4a66pp9767973%%&%$244<21<6<<24a88866p6697697%%*%%$4244",
"hh97h78H](~/TTTT///_/Jakh9he9eeehhe7h76m((/_TTTT/T//TPdkxshe99ee",
"hNNNjhaRDDmmvMMMMmcDDz5hhhNhhkhChNhhZfzTDmcDcMMMMnmSFz5ehhhNhhkk",
"ssNNhe8GMMmmmJmJvMmcx93rerhehhehxhhxNe9FmMMMmmMJmDDmx93rreheeeeh",
"e%0737$222522422248886679s88se8s5-0933$2666<4422266a862s9989ss99",
"F$;***;*7=7%=*7;*U/^//////TY//TQL$;**-0*7-*%=;7;&L/Y//////T^T/TT",
"S2w;w;qq:;%e:w;;+cFMmmxMvMvMmnxAF$:qwqf;:;0fgf*q%cDMGDxMMcMGGMNv",
"z*:7f;;;q:%;%*;73cMMmmMcMDSmmmmSb%,pp;f;:f%0*;;07cGMmDvMncDDmmvD",
"8$7&67&36@%%%3*%%2266452642O6868827%6%%3$$%%$%3%+2222244652O6868",
"____''_'R$+3qseejssfejfee7qaP'_/_/__''__I$%27hsehh9eegef997aU_'Q",
"____'___T6ZNh9shhhshjhhhNesx_'_(____''__T6ZNh9sjhsNhjhhhhhhm_'__",
"(_____//U9h9hNZsheeieeeiCNhb''_)(_/]]/]_U9h9hZNehhheieiilhhb`'/]",
"azzxzznmz7999%#9ss967773301+yt8t9zzzzbzcd6995%%7ps96773703+Oa85z",
"*aRT///TTT//UHHU/TI%;*;;;;%**--%&a(T//TTT/T/ULHU//I&:%;;00*;---%",
"-8GmMxMAJMmmJEEJMMM%03;p*7*>;7qq-sGcMxMMJmMJPPPPJMM%0%*7fp*p7pf*",
"-7mmMvDmmMMccccMvDx27q:,;--;;;;;-8MmmmMMcMMmvcMmcMc$3f:;;-;;;;;;",
"9488848622222224622XX*#6977693697488848$22222242252 X**676779677",
"U///((Pajhfhehh79e9hex8F////////TY((//Pajheheheq9eqh9N8S////~///",
"mJMzmmx7hhhhshhNNNhjNh7mMcvmMvccmmMmmGx9hhhhhhNCxhhjjh5MmMcMmvvc",
"GDMMMM43ZhhhNhhNNBNheN5xGFDmDmDMDmMMMv83ZhhhhhhhhZNheN5zDDFDmDmD",
"2<4222 235335735032q35X222222222222222.O35755753335373o262226262"
};
